<?xml version="1.0" encoding="UTF-8"?>
<!-- Created with Inkscape (http://www.inkscape.org/) -->
<svg width="3510.9" height="3510.9" version="1.1" viewBox="0 0 3510.9 3510.9" xmlns="http://www.w3.org/2000/svg">
 <g transform="translate(-24.61 -892.12)">
  <path d="m1523.1 3275.1c-16.971-2.5655-48.6-8.7885-70.286-13.829-21.686-5.0405-57.171-15.213-78.857-22.606-21.686-7.3927-61.177-24.121-87.758-37.173-26.581-13.052-65.423-35.153-86.316-49.112-20.893-13.959-50.059-35.206-64.814-47.216-14.755-12.01-39.17-34.189-54.255-49.286l-27.429-27.45 17.429-1.0165c9.5858-0.5591 33.141 1.3328 52.345 4.2043 19.204 2.8714 51.476 9.2584 71.714 14.193 33.532 8.1762 40.145 11.208 74.512 34.161 20.743 13.854 51.035 32.255 67.317 40.892 16.281 8.6369 44.824 21.916 63.428 29.51 18.604 7.5937 51.588 18.987 73.297 25.318 21.709 6.331 59.509 15.066 84 19.411 37.732 6.6941 56.304 7.8999 121.67 7.8999 65.367 0 83.947-1.2063 121.71-7.9025 24.514-4.3464 62.314-13.013 84-19.258 21.686-6.2458 56.4-18.565 77.143-27.376 20.743-8.8108 52.371-23.869 70.286-33.462s43.371-24.357 56.571-32.808c13.2-8.4507 35.571-23.896 49.714-34.322s43.844-36.68 66.003-58.34 41.227-38.445 42.374-37.298-1.4711 7.188-5.8174 13.425c-4.3463 6.2371-17.177 22.912-28.512 37.054-11.335 14.143-37.648 42.824-58.472 63.736-20.824 20.912-53.878 49.909-73.454 64.438-19.576 14.529-50.195 35.01-68.044 45.515-17.849 10.505-48.864 26.841-68.924 36.303-20.059 9.462-56.554 23.79-81.099 31.84-24.545 8.0497-60.056 17.794-78.913 21.655-18.857 3.8604-47.36 8.641-63.339 10.624s-59.95 3.4552-97.714 3.2725c-38.642-0.1869-82.152-2.3715-99.518-4.9967zm132-94.219c-14.143-1.718-41.914-6.324-61.714-10.236s-56.057-13.808-80.571-21.991-76.971-29.122-116.57-46.531-89.245-38.342-110.32-46.518c-21.078-8.1765-51.606-18.717-67.841-23.424-16.235-4.7068-49.133-11.989-73.106-16.182-33.229-5.8128-57.846-7.6862-103.59-7.883-33-0.1421-69.257 0.8848-80.571 2.2819-12.377 1.5283-18.523 1.3226-15.429-0.5164 2.8286-1.681 27.015-8.5418 53.747-15.246 29.424-7.3795 66.028-13.782 92.759-16.223 33.532-3.0631 54.799-3.0856 88.392-0.094 24.33 2.167 63.588 7.849 87.241 12.627 23.652 4.7777 56.118 12.64 72.147 17.472 16.029 4.8317 69.329 23.932 118.45 42.445s105.08 38.348 124.37 44.078c19.287 5.7297 51.02 13.496 70.518 17.259 19.498 3.7627 55.735 8.4797 80.526 10.482 31.153 2.5162 58.361 2.5618 88.093 0.1475 23.66-1.9213 58.743-6.676 77.962-10.566 19.219-3.8901 48.829-11.776 65.8-17.523 16.972-5.7478 45.738-17.854 63.926-26.902 18.188-9.0481 41.629-21.927 52.09-28.619 10.462-6.6924 25.322-17.86 33.022-24.816s14.795-11.854 15.766-10.882c0.9713 0.9712-11.027 13.686-26.662 28.256-15.635 14.57-45.399 37.813-66.142 51.652-20.743 13.839-57 34.427-80.571 45.752s-58.733 25.261-78.136 30.971c-19.403 5.7093-48.718 12.834-65.143 15.832-16.425 2.9985-53.007 6.0301-81.292 6.7368-28.286 0.7068-63-0.1206-77.143-1.8385zm-241.71-213.71c-9.4285-2.4155-23.464-7.6599-31.189-11.654s-21.888-15.842-31.472-26.329c-10.494-11.482-20.432-26.905-24.981-38.77-4.2556-11.098-8.2781-30.982-9.211-45.53-0.9109-14.205 0.1157-34.363 2.2812-44.794 2.1656-10.432 8.5024-28.619 14.082-40.416 6.2409-13.196 17.977-29.283 30.502-41.807 12.524-12.524 28.611-24.261 41.807-30.502 11.798-5.5793 29.298-11.773 38.889-13.764 9.7102-2.0159 45.517-3.2049 80.794-2.6829l63.355 0.9376 1.7143 110.22c1.5897 102.21 2.1889 110.74 8.2456 117.43 3.5923 3.9665 8.6066 7.2118 11.143 7.2118 3.5399 0 4.6115 7.5835 4.6115 32.637v32.637l-9.4286-2.0875c-5.1857-1.1482-14.575-3.6552-20.866-5.5712-6.2903-1.9159-16.783-8.1778-23.318-13.915-6.5346-5.7374-14.204-14.925-17.044-20.416l-5.1633-9.9846-14.376 14.455c-7.9067 7.9503-23.633 18.741-34.947 23.979s-29.057 10.332-39.429 11.32c-10.498 0.9994-26.457-0.1517-36-2.5967zm72.476-60.724c4.0334-1.4858 13.135-7.795 20.225-14.02s14.976-16.308 17.524-22.405c3.3399-7.9935 4.6322-29.29 4.6322-76.339v-65.253l-16.286-0.5628c-8.9572-0.3096-24-0.2154-33.429 0.2093s-24.842 3.2392-34.252 6.2546c-12.18 3.9033-22.59 11.003-36.136 24.648-13.938 14.039-20.595 24.085-24.891 37.559-3.2252 10.116-5.8641 25.701-5.8641 34.631 0 8.9307 1.7789 21.482 3.953 27.892 2.1742 6.41 6.9103 15.901 10.525 21.091 3.6145 5.1901 11.691 13.341 17.947 18.113 6.2565 4.7721 18.106 9.9756 26.332 11.563 8.2263 1.5878 21.128 2.0845 28.671 1.1038 7.5429-0.9806 17.014-2.9986 21.048-4.4843zm496.67 62.422c-5.6571-1.494-17.567-5.9539-26.467-9.9109s-23.117-14.33-31.593-23.052c-8.4763-8.7215-20.419-26.029-26.54-38.462-9.6058-19.512-11.322-27.034-12.544-54.985-1.0381-23.736 0.1784-38.272 4.557-54.448 3.2853-12.137 11.709-30.894 18.719-41.682 7.0104-10.788 19.812-26.085 28.448-33.992 8.6358-7.9073 24.764-18.952 35.84-24.543 11.076-5.5914 29.334-11.93 40.573-14.087 12.152-2.3318 45.448-3.5014 82.149-2.8857l61.714 1.0354-1.3049 80.571c-0.7177 44.314-0.1377 93.686 1.2888 109.71 2.4247 27.245 3.3562 29.862 14.302 40.188 11.703 11.04 11.708 11.058 10.711 39.429l-0.9974 28.384-11.299-1.0974c-6.2146-0.6036-16.443-3.2465-22.729-5.8731s-16.044-8.6587-21.685-13.405-12.128-13.15-14.416-18.675l-4.1612-10.046-12.081 13.372c-6.6445 7.3547-21.645 18.08-33.334 23.835-15.68 7.7191-27.496 10.839-45.06 11.897-13.094 0.789-28.435 0.2122-34.092-1.2818zm60.333-59.118c12.798-2.7446 21.963-7.6458 32.554-17.407 11.623-10.714 15.551-17.338 18.574-31.323 2.2491-10.406 3.389-41.115 2.7581-74.307l-1.0753-56.571-30.36-0.9959c-20.452-0.6709-36.566 0.8085-49.379 4.5332-14.858 4.3193-23.274 9.7881-38.466 24.996-13.304 13.318-21.262 24.804-25.193 36.363-3.1602 9.2931-5.712 26.264-5.6706 37.714 0.049 13.467 2.5365 26.244 7.0457 36.185 3.8337 8.4518 9.5818 18.253 12.774 21.78 3.1919 3.527 10.436 8.8272 16.097 11.778 5.6616 2.951 14.922 6.4923 20.58 7.8695 5.6572 1.3772 12.91 2.662 16.117 2.855s13.847-1.3682 23.644-3.4693zm258.4 55.64c-9.4947-3.4202-20.391-7.8927-24.215-9.9389-3.8234-2.0463-13.55-10.878-21.614-19.627-8.0642-8.7487-17.6-22.548-21.191-30.665-3.5906-8.1171-8.2307-26.902-10.311-41.745-2.0807-14.843-3.2483-50.901-2.5947-80.13l1.1883-53.143-39.429-2.0565v-57.944h41.143v-61.264l27.702-19.082c15.236-10.495 28.35-19.082 29.143-19.082s1.4409 22.371 1.4409 49.714v49.714h85.714v58.286h-85.714l0.019 62.571c0.01 34.414 1.6127 68.309 3.5604 75.322 1.9476 7.0129 7.4154 17.355 12.15 22.982s13.933 12.157 20.44 14.51l11.83 4.2779v31.883c0 28.126-0.707 31.868-6 31.759-3.3-0.068-13.768-2.922-23.263-6.3421zm-651.61-0.1057c-0.7772-0.7857-1.413-102.39-1.413-225.79v-224.36l9.1758-7.3505c5.0468-4.0429 17.775-13.131 28.286-20.197 10.51-7.0655 20.252-12.851 21.647-12.857 1.3957-0.01 2.9385 71.891 3.4286 159.77l0.8911 159.78 22.153-16.309c12.184-8.9697 30.407-24.943 40.496-35.497 10.089-10.554 26.349-31.093 36.133-45.644l17.789-26.456 36.857-0.1159c20.272-0.064 36.857 0.8388 36.857 2.0057 0 1.1668-8.7488 14.667-19.442 30-10.693 15.333-28.358 38.848-39.256 52.254-10.898 13.407-30.86 34.603-44.36 47.102l-24.546 22.726 45.802 50.266c25.191 27.646 53.13 58.612 62.088 68.812 8.9571 10.2 16.289 19.613 16.292 20.918 0 1.3045-18.433 1.8967-40.97 1.3159l-40.977-1.0561-34.041-38.372c-18.722-21.105-42.645-47.63-53.161-58.944l-19.12-20.571-0.1546 58.891-0.1545 58.891-29.444 1.109c-16.194 0.61-30.08 0.4662-30.857-0.3195zm-674.84-5.9116c-1.1874-3.0943 0.43357-9.5826 3.6021-14.418 3.1686-4.8359 46.17-65.176 95.559-134.09 49.389-68.913 103.15-144.25 119.46-167.41 16.314-23.162 29.661-42.833 29.661-43.714s-47.728-1.6018-106.06-1.6018h-106.06l12.635-28.924c8.5219-19.509 14.867-29.538 19.492-30.81 3.7714-1.0373 69.777-1.9071 146.68-1.9328 117.74-0.039 140.12 0.7231 141.69 4.8281 1.0289 2.6812 0.01 8.3576-2.2712 12.614-2.278 4.2565-29.128 43.334-59.668 86.839s-83.711 119.08-118.16 167.95-63.278 90.523-64.065 92.572c-1.0167 2.6461 31.964 3.45 113.92 2.7767l115.35-0.9477-2.0834 12.948c-1.1459 7.1212-4.4951 21.048-7.4427 30.948l-5.3592 18h-162.36c-147.35 0-162.56-0.52-164.52-5.6259zm-9.1002-56.946c-3.8478-6.1286-16.928-31.2-29.067-55.714-12.139-24.514-28.872-65.4-37.185-90.857-8.3126-25.457-18.298-62.486-22.19-82.286-3.8917-19.8-8.6055-48.343-10.475-63.428-1.8696-15.086-4.3847-44.4-5.589-65.143-1.2043-20.743-0.48118-58.767 1.607-84.498 2.0881-25.731 6.8695-63.849 10.625-84.707s12.336-56.119 19.067-78.359c6.7312-22.24 16.153-50.464 20.937-62.722 4.7844-12.257 17.884-40.8 29.11-63.429s31.956-58.376 46.066-79.439c14.11-21.063 39.939-55.006 57.398-75.429 17.458-20.423 45.281-49.475 61.828-64.561 16.547-15.086 44.212-37.96 61.478-50.831 17.266-12.871 44.172-31.121 59.789-40.554 15.618-9.4335 45.724-25.374 66.903-35.423 21.179-10.049 54.587-23.854 74.24-30.678 19.653-6.8239 51-16.277 69.661-21.008 18.661-4.7303 48.867-10.899 67.125-13.707 18.258-2.8088 56.339-6.0481 84.624-7.1986 31.224-1.2699 68.266-0.4599 94.286 2.0618 23.571 2.2844 57.704 7.1214 75.85 10.749 18.146 3.6274 49.003 11.349 68.571 17.159s48.693 15.979 64.721 22.598c16.029 6.6187 44.09 19.7 62.359 29.071s49.126 27.585 68.572 40.477c19.445 12.892 50.411 36.054 68.812 51.472s45.977 42.19 61.279 59.494c15.302 17.304 36.562 43.805 47.245 58.89s23.012 33.295 27.398 40.466c4.3862 7.1706 7.3393 13.673 6.5623 14.45-0.777 0.7769-16.436-14.675-34.797-34.338-18.361-19.663-48.275-48.179-66.474-63.37-18.199-15.191-46.302-36.652-62.451-47.691s-43.602-27.963-61.006-37.608c-17.405-9.6453-48.071-24.553-68.148-33.128-20.077-8.5753-54.118-20.931-75.648-27.457-21.53-6.526-56.435-15.084-77.566-19.019-25.677-4.7806-59.468-7.7809-101.87-9.045-39.726-1.1843-76.905-0.3569-99.429 2.2128-19.787 2.2574-51.405 7.2444-70.262 11.082-18.857 3.8379-55.114 13.8-80.572 22.138-25.457 8.338-64.976 24.454-87.82 35.812-22.844 11.359-56.46 30.562-74.702 42.674-18.242 12.112-44.295 31.157-57.895 42.321-13.6 11.164-38.154 33.972-54.565 50.685s-37.882 40.415-47.713 52.672c-9.8307 12.257-27.036 36.171-38.234 53.143-11.198 16.971-26.932 43.971-34.963 60s-20.371 43.8-27.422 61.714c-7.0503 17.914-17.241 49.543-22.646 70.286-5.4049 20.743-12.452 53.143-15.66 72-4.1651 24.484-5.8509 54.38-5.8965 104.57-0.0464 51.044 1.5464 79.672 5.8183 104.57 3.2352 18.857 10.5 51.679 16.143 72.938 5.6436 21.259 14.867 50.245 20.495 64.415 5.6288 14.17 14.853 34.913 20.498 46.096l10.264 20.333-25.118 33.538c-13.815 18.446-29.446 40.095-34.735 48.109-5.2899 8.0143-10.207 14.571-10.927 14.571s-4.4573-5.0142-8.3051-11.143zm606.4-346.19c-5.0993-1.7256-10.149-5.9008-11.221-9.2782-1.0719-3.3774-0.9724-8.6857 0.2212-11.796 1.1937-3.1105 5.7135-6.5448 10.044-7.6317 4.3306-1.0869 11.232-0.1792 15.336 2.0172 6.131 3.2812 8.7005 2.8746 14.408-2.2799 3.8207-3.4503 11.407-15.101 16.858-25.89 5.451-10.789 9.9109-21.753 9.9109-24.364s-9.2328-27.63-20.517-55.597c-11.284-27.967-24.013-57.889-28.286-66.493-4.5073-9.0764-11.754-17.534-17.264-20.148-5.2225-2.4777-8.6028-5.9491-7.5119-7.7143s16.459-3.2094 34.15-3.2094 33.092 1.4976 34.224 3.328c1.1312 1.8304-1.8634 4.312-6.6548 5.5145-5.9165 1.485-8.7117 4.5281-8.7117 9.4844 0 4.0139 8.0349 26.978 17.855 51.03 9.8204 24.053 18.904 42.587 20.186 41.188 1.2817-1.3997 9.4469-21.394 18.145-44.432s15.814-44.101 15.814-46.807-4.6285-6.5343-10.286-8.5064c-5.6571-1.9721-10.286-5.2087-10.286-7.1925 0-2.223 10.524-3.6069 27.429-3.6069 15.086 0 27.428 1.4586 27.428 3.2414 0 1.7829-4.0591 5.2543-9.0203 7.7143-5.4087 2.6819-11.076 9.964-14.154 18.187-2.8233 7.5429-16.699 43.029-30.834 78.857-14.136 35.828-30.243 74.4-35.794 85.714-5.5512 11.314-13.263 23.958-17.137 28.097-3.874 4.139-11.098 8.9172-16.052 10.618-5.3848 1.8488-12.738 1.8309-18.28-0.044zm-266.73-80.341c-2.8285-1.1326-8.6143-5.2175-12.857-9.0776-5.8819-5.3513-7.7143-10.795-7.7143-22.917 0-11.235 2.0405-18.089 6.9566-23.366 3.8261-4.1069 11.884-10.015 17.906-13.129 6.0223-3.1142 21.02-9.0527 33.329-13.196l22.38-7.5343 1.0278-19.397c0.8943-16.877-0.087-20.512-7.5584-27.983-4.7224-4.7224-11.67-8.5862-15.438-8.5862s-10.759 1.7802-15.534 3.956c-6.1084 2.7832-10.002 8.6277-13.133 19.714-4.0061 14.184-5.467 15.758-14.622 15.758-7.866 0-10.414-1.7082-11.243-7.5375-0.5898-4.1455 0.5407-10.551 2.5121-14.235 1.9715-3.6838 11.628-10.706 21.46-15.606 12.431-6.1944 23.365-8.9076 35.898-8.9076 9.9125 0 21.878 1.7566 26.59 3.9036s10.956 8.9373 13.876 15.09c3.987 8.402 5.3081 22.846 5.3081 58.036 0 26.577 1.5797 49.802 3.6507 53.671 2.6709 4.9907 6.4903 6.5405 14.232 5.7747 5.9737-0.591 11.197 0.7318 11.997 3.0378 0.7786 2.2465-3.2347 6.4894-8.9184 9.4286-5.6838 2.9392-14.06 5.344-18.614 5.344s-12.344-3.1977-17.313-7.106-9.0338-9.2765-9.0338-11.929c0-3.3009-4.5992-1.6018-14.571 5.3835-9.0071 6.3091-20.463 10.83-30 11.838-8.4858 0.8971-17.743 0.7044-20.572-0.4281zm51.429-25.02c7.594-5.3309 8.687-8.8434 9.5844-30.801 0.9997-24.456 0.9089-24.752-6.8571-22.342-4.3286 1.3431-14.474 5.5185-22.546 9.2786s-16.943 10.074-19.714 14.03-5.0148 11.093-4.9859 15.859c0.029 4.7662 1.186 10.34 2.5714 12.387 1.3854 2.0469 5.6046 5.4325 9.3761 7.5236 3.7714 2.0911 10.714 2.9649 15.428 1.9416 4.7143-1.0232 12.429-4.5681 17.143-7.8775zm106.86 23.622c-4.3986-1.763-11.73-2.2686-16.293-1.1234-8.2712 2.0759-8.2912 2.013-6.79-21.362 0.8282-12.894 3.1458-23.991 5.1503-24.659s3.6445 0.6091 3.6445 2.8384 2.5224 9.3687 5.6052 15.865c3.0829 6.4966 9.9491 14.058 15.258 16.804s14.839 4.9919 21.177 4.9919c6.858 0 14.562-2.8304 19.027-6.9908 4.4558-4.1512 7.5037-11.114 7.5037-17.143 0-5.6186-3.0968-13.249-6.9347-17.087-3.8141-3.8141-15.756-10.836-26.537-15.604s-23.044-11.903-27.252-15.855c-4.2071-3.9524-9.3566-12.359-11.443-18.682-2.7982-8.4784-2.7642-14.616 0.1293-23.384 2.1579-6.5383 8.4563-15.702 13.996-20.364s16.623-9.4497 24.628-10.64 22.269-0.8682 31.698 0.7154l17.143 2.8793 1.0283 19.648c0.5655 10.807-0.2817 19.648-1.8827 19.648s-4.8689-5.4148-7.262-12.033c-2.5736-7.1171-8.3881-14.12-14.233-17.143-5.4349-2.8105-14.587-5.11-20.338-5.11-5.8846 0-13.454 2.998-17.313 6.8571-3.7714 3.7715-6.8571 11.297-6.8571 16.723 0 5.4262 2.5361 11.983 5.6358 14.571 3.0996 2.5881 16.56 10.106 29.912 16.706 16.022 7.92 26.929 15.961 32.078 23.65 4.2915 6.4075 7.8028 16.203 7.8028 21.768s-2.5266 15.442-5.6147 21.95c-3.42 7.207-10.738 14.446-18.721 18.518-7.902 4.0314-19.626 6.5999-29.528 6.4688-9.0323-0.1195-20.021-1.6598-24.42-3.4228zm-381.15-2.6743c0-1.5872 5.9937-4.6816 13.32-6.8765 9.0172-2.7016 13.986-6.4761 15.382-11.686 1.1343-4.2322 2.0834-47.424 2.1091-95.981 0.044-83.748-0.3056-88.638-6.8103-95.143-3.7714-3.7715-9.9429-6.8572-13.714-6.8572s-6.8571-1.5428-6.8571-3.4285c0-2.1885 29.143-3.4286 80.571-3.4286h80.571v24c0 13.2-1.4232 24-3.1627 24-1.7394 0-4.9368-5.3759-7.1053-11.946s-7.9591-15.106-12.868-18.967c-7.9275-6.2359-12.974-6.9126-45.14-6.0537-32.656 0.8721-36.339 1.6181-37.484 7.5931-0.6983 3.6444-0.1787 24.087 1.1548 45.429l2.4244 38.802h26.671c18.775 0 27.859-1.4319 30.685-4.8369 2.2079-2.6603 4.9129-10.375 6.0113-17.143 1.0983-6.7682 3.3379-12.306 4.9769-12.306s2.98 16.2 2.98 36 0.1157 37.119 0.2571 38.486c0.1414 1.3672-1.2525 2.9889-3.0976 3.604-1.8451 0.615-4.4269-5.228-5.7373-12.985-1.8029-10.671-4.4406-14.885-10.84-17.318-4.6515-1.7685-18.385-3.2155-30.52-3.2155h-22.062l0.053 45.429c0.029 24.986 1.5065 47.728 3.2837 50.539 2.3112 3.6556 11.231 5.4742 31.325 6.3867 15.452 0.7017 33.954-0.4797 41.116-2.6254 7.2054-2.1588 15.943-8.0742 19.562-13.244 3.5973-5.1384 8.0141-13.875 9.8151-19.414s5.3449-10.762 7.8753-11.605c3.6188-1.2062 4.1219 1.9605 2.3572 14.836-1.234 9.0031-2.2437 22.325-2.2437 29.605v13.236h-87.428c-48.086 0-87.429-1.2986-87.429-2.8859z" fill="#98aba0"/>
  <path d="m1542.9 3276.6c-13.641-1.5873-44.498-6.8612-68.572-11.72-24.074-4.8584-65.273-15.975-91.554-24.703-26.281-8.7283-70.253-27.032-97.714-40.675-27.462-13.643-66.13-35.614-85.93-48.825s-48.343-34.049-63.429-46.308c-15.086-12.258-39.771-34.925-54.857-50.37l-27.429-28.082 29.143 2.2644c16.029 1.2454 42.257 4.5199 58.286 7.2767s43.198 8.6309 60.376 13.054c26.638 6.8582 36.978 11.857 70.286 33.978 21.479 14.265 54.184 33.682 72.676 43.149 18.493 9.4669 47.907 22.747 65.365 29.511 17.458 6.7644 47.842 16.952 67.52 22.64 19.678 5.6874 53.521 13.524 75.207 17.416 26.911 4.829 60.696 7.6323 106.42 8.83 51.017 1.3365 77.757 0.3845 112.15-3.9926 24.836-3.1612 60.262-9.4136 78.724-13.894 18.462-4.4808 48.225-13.011 66.139-18.957 17.914-5.9456 55.714-21.984 84-35.642 28.286-13.657 64.543-33.035 80.571-43.061s43.029-28.682 60-41.458 47.443-38.914 67.714-58.084c20.271-19.171 36.857-33.469 36.857-31.775s-12.902 19.18-28.67 38.857c-15.769 19.677-43.508 50.608-61.642 68.737-18.134 18.128-45.424 42.814-60.644 54.857-15.22 12.043-42.769 31.437-61.221 43.098-18.452 11.66-50.389 29.608-70.972 39.884-20.583 10.275-52.852 24.457-71.709 31.514-18.857 7.0575-54.343 17.894-78.857 24.081s-63.613 13.708-86.886 16.713c-25.891 3.3434-64.482 5.2916-99.428 5.0195-31.413-0.2447-68.275-1.7436-81.915-3.331zm119.11-95.961c-16.018-1.5412-46.104-6.1268-66.857-10.19-20.753-4.0635-57.79-14.05-82.304-22.193-24.514-8.1424-73.114-27.426-108-42.852-34.886-15.426-84.257-36.271-109.71-46.322-25.457-10.051-60.171-22.309-77.143-27.24-16.972-4.9316-49.372-12.314-72-16.404-33.066-5.9776-54.604-7.4569-109.71-7.5353-37.714-0.054-73.971 1.0332-80.571 2.4151-7.2545 1.5191-9.9662 1.3283-6.8571-0.4824 2.8286-1.6474 19.8-6.9592 37.714-11.804 17.914-4.8449 47.229-11.407 65.143-14.582 21.836-3.8705 50.653-5.7312 87.429-5.6451 40.074 0.094 66.714 2.139 98.856 7.589 24.2 4.1032 62.957 12.656 86.127 19.006 23.17 6.3502 80.952 26.311 128.4 44.357 47.452 18.046 103.95 38.167 125.54 44.713 21.595 6.5458 54.328 14.938 72.739 18.648 18.411 3.7107 52.76 8.5174 76.332 10.681 24.604 2.2589 58.92 2.9503 80.572 1.6234 20.743-1.2712 55.3-5.2859 76.794-8.9216 21.494-3.6357 55.437-12.059 75.428-18.719 19.992-6.6597 50.234-18.864 67.206-27.12 16.972-8.2562 40.886-21.467 53.143-29.357 12.257-7.8904 26.512-18.318 31.678-23.173 5.1661-4.8546 10.287-7.9321 11.381-6.8387s-11.619 13.89-28.25 28.436c-16.631 14.547-44.124 35.661-61.095 46.922-16.972 11.26-49.372 29.459-72 40.441-22.629 10.982-55.8 24.596-73.714 30.253-17.914 5.6565-44.52 12.747-59.125 15.756s-40.833 6.9754-58.286 8.8141c-17.453 1.8387-42.532 3.1596-55.732 2.9353s-37.106-1.6687-53.124-3.2099zm323.48-212.33c-7.8162-1.584-21.764-6.7071-30.995-11.385-9.2309-4.6777-23.411-15.694-31.51-24.482-8.0997-8.7872-19.494-26.164-25.321-38.616-8.0435-17.189-10.958-28.92-12.104-48.729-0.8307-14.35 0.2615-34.625 2.4271-45.057s8.5023-28.619 14.082-40.416c6.1424-12.988 17.933-29.238 29.889-41.194 12.194-12.193 28.267-23.79 42.03-30.326 12.257-5.8202 31.44-12.254 42.63-14.298 11.189-2.0437 47.061-3.7158 79.714-3.7158h59.37v104.68c0 82.279 1.0336 107.16 4.8298 116.24 2.6564 6.3577 8.0564 12.584 12 13.835 6.5695 2.0851 7.1702 4.8412 7.1702 32.902v30.626h-9.6126c-5.2869 0-17.807-4.0837-27.823-9.0748-12.816-6.3863-21.064-13.574-27.842-24.261-8.8818-14.005-9.913-14.659-13.261-8.4032-1.9966 3.7306-10.985 12.085-19.975 18.565-8.9894 6.4803-22.516 14.147-30.059 17.037-7.5428 2.8901-22.2 6.0858-32.571 7.1015s-25.252 0.5508-33.068-1.0332zm60.9-58.273c6.8218-1.8949 17.622-6.913 24-11.151s15.068-14.578 19.311-22.976c7.2013-14.255 7.7142-19.644 7.7142-81.053v-65.783l-23.143-2.2313c-12.729-1.2272-31.402-0.6221-41.496 1.3446-10.094 1.9667-26.022 7.7497-35.395 12.851-9.373 5.1014-21.589 15.017-27.148 22.035-5.5582 7.0177-13.386 20.175-17.395 29.238-5.0128 11.332-7.2891 23.488-7.2891 38.924 0 15.15 2.2477 27.434 6.9156 37.794 3.8036 8.4417 11.571 19.714 17.26 25.048 5.6897 5.3348 16.305 11.824 23.589 14.421s19.415 4.7804 26.958 4.8526c7.5428 0.072 19.296-1.419 26.118-3.3139zm266.15 58.047c-7.0791-1.6685-20.332-6.8144-29.452-11.435-9.1192-4.6211-21.686-14.216-27.925-21.323-6.2396-7.1065-15.358-21.477-20.263-31.934-8.6566-18.456-8.95-21.296-10.006-96.849l-1.0874-77.836-38.968-2.0427v-54.857l19.714-1.0283 19.714-1.0282 2e-4 -29.829 3e-4 -29.829 58.285-39.752v99.541l84 1.9254 1.9916 56.571h-85.992v66.634c0 38.641 1.5287 70.689 3.6389 76.286 2.0013 5.3085 8.4063 14.595 14.233 20.636 5.8269 6.0414 14.989 11.95 20.361 13.13l9.7667 2.1451v32.299c0 17.764-1.1571 32.144-2.5714 31.955-1.4143-0.1895-8.3635-1.7095-15.443-3.3779zm-910.02-4.4418c-7.8744-2.5721-19.682-7.9926-26.24-12.045-6.5577-4.0529-17.418-13.451-24.134-20.885-6.7161-7.4339-16.002-20.998-20.636-30.141-4.6335-9.1437-10.243-26.556-12.467-38.694-2.2331-12.193-3.094-31.495-1.9237-43.129 1.1651-11.583 5.0943-29.709 8.7317-40.281 3.6373-10.572 12.156-27.572 18.929-37.777 6.7739-10.205 18.815-23.763 26.758-30.128 7.9429-6.3654 18.837-14.353 24.21-17.751 5.3724-3.3977 18.487-9.3728 29.143-13.278 16.606-6.0858 29.542-7.3172 90.518-8.6164l71.143-1.5158 0.019 100.63c0.011 59.28 1.4887 105.92 3.5955 113.51 2.0802 7.4906 7.8094 16.008 13.695 20.359 9.7945 7.2414 10.119 8.3948 10.119 35.979 0 27.63-0.2456 28.498-8.0598 28.498-4.4329 0-13.304-1.7559-19.714-3.9021-6.41-2.1461-16.683-7.6355-22.829-12.199s-14.255-14.334-18.02-21.714l-6.8452-13.418-14.067 15.26c-7.7366 8.3932-22.604 19.437-33.038 24.542-14.901 7.2905-24.935 9.5059-46.771 10.326-17.014 0.6394-33.355-0.7698-42.117-3.6319zm94.35-62.823c9.3015-5.747 19.098-15.535 23.469-23.446 6.8785-12.452 7.5912-19.199 8.5714-81.153l1.0691-67.572-18.318-2.2845c-10.075-1.2565-27.046-1.2949-37.714-0.085-10.668 1.2095-28.953 6.8589-40.632 12.554-12.505 6.098-25.35 15.592-31.244 23.093-5.5051 7.0056-12.795 18.138-16.201 24.738-3.7468 7.2619-6.8122 22.464-7.7634 38.502-1.4008 23.618-0.5686 28.552 7.6478 45.346 5.0708 10.364 13.961 22.221 19.757 26.347s16.114 9.5902 22.931 12.141c7.46 2.7916 20.369 4.0502 32.427 3.1615 14.257-1.0507 24.637-4.3211 36-11.342zm-518.29 61.878c-1.2756-1.2756-2.3192-5.0275-2.3192-8.3377s38.041-58.982 84.536-123.71c46.495-64.733 102.79-143.54 125.1-175.12l40.564-57.428h-106.24c-58.434 0-106.24-1.3256-106.24-2.9458 0-1.6201 5.4467-14.734 12.104-29.143l12.104-26.197h145.61c143.55 0 145.61 0.098 145.61 6.8885 0 3.7888-30.615 50.46-68.032 103.71-37.418 53.254-92.189 131.16-121.71 173.12-29.525 41.964-53.682 77.836-53.682 79.714 0 2.2 40.964 3.4151 115.13 3.4151h115.13l-2.3729 11.143c-1.3051 6.1285-4.8991 18.857-7.9867 28.286l-5.6138 17.143-159.68 0.8907c-87.824 0.4898-160.72-0.153-162-1.4286zm669.68-221.79c0-213.64 0.2944-224.31 6.3438-229.78 3.4891-3.1576 16.218-12.618 28.286-21.023 12.068-8.4049 22.207-14.161 22.532-12.79s1.2816 72.363 2.1272 157.76c0.8457 85.399 2.4004 156.13 3.4551 157.19 1.0547 1.0546 9.3545-3.1512 18.444-9.3462 9.0897-6.1951 26.67-21.387 39.067-33.759s31.425-35.224 42.285-50.781l19.746-28.286h34c21.56 0 34 1.3233 34 3.6167 0 1.9891-6.3154 12.917-14.034 24.283-7.7189 11.367-26.312 35.93-41.318 54.586-15.006 18.656-36.462 41.903-47.68 51.66s-20.37 18.666-20.339 19.797c0.031 1.1315 27.851 32.914 61.822 70.629l61.765 68.571-80.786 2.0425-9.5117-11.307c-5.2315-6.2188-29.146-33.194-53.143-59.946-23.997-26.751-44.788-48.737-46.203-48.857s-2.5714 26.782-2.5714 59.782v60h-58.286zm-691.87 142.61c-9.2834-16.499-22.68-43.112-29.769-59.141-7.0895-16.029-17.387-42.257-22.883-58.286-5.496-16.029-13.732-43.822-18.303-61.762-4.5706-17.941-10.819-47.255-13.886-65.143-3.1996-18.662-6.3743-62.608-7.4487-103.11-1.1563-43.589-0.37247-83.586 2.0493-104.57 2.157-18.691 7.1344-50.184 11.061-69.984s14.735-59.143 24.018-87.428c9.2832-28.286 26.775-71.486 38.87-96s32.774-60.772 45.952-80.572 32.622-46.8 43.208-60c10.586-13.2 33.464-38.511 50.84-56.247s44.956-43.417 61.29-57.069c16.334-13.652 44.877-34.828 63.429-47.057s50.83-30.837 71.73-41.35c20.9-10.512 51.04-24.371 66.979-30.797 15.939-6.4256 42.81-15.744 59.715-20.708 16.905-4.9635 44.621-11.991 61.593-15.617 16.971-3.6259 45.514-8.5466 63.429-10.935s59.571-4.2714 92.571-4.1843c37.168 0.098 75.518 2.3668 100.78 5.9621 22.428 3.1921 58.286 10.318 79.683 15.835s53.961 15.657 72.364 22.533c18.403 6.8761 50.296 20.931 70.873 31.232 20.577 10.302 49.46 26.202 64.184 35.334 14.724 9.1322 39.546 26.241 55.159 38.019s43.595 36.182 62.183 54.232c18.587 18.049 43.454 45.159 55.258 60.245s28.611 38.13 37.348 51.21 15.885 25.129 15.885 26.777c0 1.6477-17.205-14.901-38.234-36.776-21.029-21.874-50.039-49.618-64.467-61.652-14.428-12.034-43.123-33.267-63.766-47.184-20.643-13.917-54.504-33.909-75.247-44.428-20.743-10.518-51.704-24.675-68.803-31.458s-50.27-17.58-73.714-23.993c-23.444-6.4125-61.14-14.421-83.769-17.797-28.246-4.2143-60.488-6.0939-102.86-5.9964-40.375 0.093-74.715 2.1575-99.312 5.9705-20.679 3.2056-54.993 10.314-76.254 15.796s-53.714 15.572-72.117 22.423c-18.403 6.8506-48.496 19.975-66.874 29.165-18.378 9.1899-46.089 24.57-61.58 34.178-15.491 9.6079-41.155 27.612-57.03 40.008s-38.897 31.924-51.16 43.395-34.636 35.531-49.719 53.467c-15.083 17.936-38.192 48.811-51.353 68.611-13.161 19.8-32.132 52.971-42.159 73.714-10.027 20.743-24.365 56.229-31.864 78.857-7.4982 22.629-16.828 57.343-20.732 77.143-3.9044 19.8-8.6813 49.074-10.615 65.053s-3.5166 50.229-3.5166 76.11 2.3703 65.265 5.2674 87.518 9.1296 55.808 13.85 74.565c4.7205 18.757 12.555 45.757 17.411 60 4.8555 14.243 15.072 39.452 22.704 56.019l13.876 30.122-8.1946 11.02c-4.5071 6.0612-20.087 27.605-34.623 47.875l-26.428 36.855zm608.11-334.12c-4.5461-6.4904-4.6245-8.5441-0.5563-14.571 2.6046-3.8589 7.5985-6.8976 11.098-6.7527 3.4991 0.1449 9.7122 1.3675 13.807 2.717 5.4199 1.7862 9.5006 0.3156 15.002-5.4063 4.1562-4.3229 11.389-16.081 16.072-26.129 5.4001-11.586 7.8445-21.62 6.6813-27.429-1.0089-5.0375-12.087-33.845-24.618-64.016-12.531-30.172-25.069-58.398-27.862-62.724-2.7934-4.327-8.9482-9.3384-13.677-11.136-4.7292-1.7981-7.6431-4.8149-6.4755-6.7042 1.1739-1.8993 16.504-3.4349 34.29-3.4349 17.692 0 33.092 1.4976 34.224 3.328 1.1312 1.8304-1.7518 4.284-6.4067 5.4523-4.655 1.1683-9.1826 3.9979-10.061 6.2879-0.8787 2.29 6.9851 25.341 17.475 51.224 10.49 25.884 20.252 45.856 21.694 44.384 1.4417-1.4723 9.7316-21.825 18.422-45.228s15.342-44.936 14.781-47.85c-0.5612-2.9139-4.755-6.1797-9.3196-7.2573-4.5646-1.0775-8.9279-3.8452-9.6963-6.1503-1.024-3.072 6.0032-4.1911 26.317-4.1911 15.243 0 27.714 1.4586 27.714 3.2414 0 1.7829-4.006 5.2543-8.9022 7.7143-7.4301 3.7332-14.426 18.403-42.306 88.71-18.372 46.331-37.831 92.372-43.242 102.31s-13.582 21.021-18.156 24.62c-4.5748 3.5986-13.422 6.5428-19.661 6.5428-7.8059 0-12.994-2.3561-16.635-7.5553zm-261.4-76.136c-5.9801-2.6912-12.537-8.003-14.572-11.804s-3.6985-12.204-3.6985-18.674c0-6.8805 3.0897-15.691 7.4439-21.226 4.0941-5.2048 15.23-13.071 24.746-17.48 9.5162-4.4089 24.681-9.9073 33.699-12.219l16.397-4.2023v-20.079c0-16.747-1.3965-21.476-8.4156-28.495-4.6285-4.6286-11.499-8.4156-15.267-8.4156s-10.759 1.7802-15.534 3.956c-6.1084 2.7832-10.002 8.6277-13.133 19.714-4.0061 14.184-5.467 15.758-14.622 15.758-7.866 0-10.414-1.7082-11.243-7.5375-0.5898-4.1455 0.5407-10.551 2.5121-14.235 1.9715-3.6838 11.628-10.706 21.46-15.606 13.056-6.5062 23.225-8.9076 37.72-8.9076 17.075 0 21.406 1.3947 31.041 9.996l11.197 9.9961 1.1076 54.29c0.871 42.694 2.2248 55.526 6.3382 60.076 3.9327 4.3507 7.2435 5.0213 13.342 2.7025 4.6638-1.7732 8.9055-1.8 9.979-0.063 1.0269 1.6616-0.4454 5.3338-3.2719 8.1603-2.8266 2.8265-9.5156 6.1003-14.864 7.2751s-13.87 0.5605-18.934-1.3653c-5.0651-1.9257-10.904-7.2198-12.974-11.765l-3.765-8.2633-16.118 10.019c-8.8649 5.5107-21.423 10.754-27.907 11.652-6.4841 0.898-16.682-0.569-22.662-3.2602zm49.219-19.471 14.797-7.163v-25.64c0-25.012-0.1887-25.581-7.7143-23.247-4.2428 1.3159-14.381 5.4984-22.529 9.2944s-17.125 10.428-19.95 14.739c-2.8242 4.3103-4.6433 12.925-4.0424 19.144 0.7719 7.9893 3.6077 12.573 9.6639 15.621 4.7143 2.3723 10.013 4.3361 11.775 4.3639 1.7617 0.028 9.8617-3.1728 18-7.1125zm120.2 22.28c-1.1143-1.1143-8.3301-2.3501-16.035-2.7461-7.705-0.396-13.993-1.7986-13.974-3.1168 0.019-1.3182 0.035-11.654 0.035-22.968 0-11.428 1.5238-20.571 3.4286-20.571 1.8857 0 3.4285 2.3909 3.4285 5.3131s2.3404 9.839 5.2009 15.371c2.8605 5.5315 9.7268 12.398 15.258 15.258 5.5316 2.8605 15.191 5.2009 21.465 5.2009 6.2741 0 14.836-2.4018 19.027-5.3373 5.0036-3.5047 7.6201-8.8797 7.6201-15.654 0-5.6742-1.6829-13.461-3.7398-17.305-2.0569-3.8433-14.014-11.609-26.572-17.256s-26.258-13.428-30.446-17.291c-4.1881-3.8624-9.322-12.196-11.409-18.518-2.7982-8.4784-2.7642-14.616 0.1293-23.384 2.1579-6.5383 8.4563-15.702 13.996-20.364s16.623-9.4497 24.628-10.64 22.269-0.8682 31.698 0.7154l17.143 2.8793 1.0283 19.648c0.5655 10.807-0.2817 19.648-1.8827 19.648s-4.8689-5.4148-7.262-12.033c-2.5736-7.1171-8.3881-14.12-14.233-17.143-5.4349-2.8105-14.244-5.11-19.575-5.11s-13.122 2.4018-17.313 5.3373c-5.2731 3.6934-7.62 8.844-7.62 16.723 0 6.2651 2.4949 13.502 5.5474 16.091 3.051 2.5881 16.413 10.106 29.694 16.706s27.37 16.356 31.31 21.68c4.948 6.6866 7.1631 14.818 7.1631 26.295 0 12.96-1.8857 18.659-8.5714 25.905-4.7143 5.1092-13.536 11.405-19.604 13.99-6.068 2.5855-16.997 4.701-24.286 4.701-7.2892 0-14.165-0.9118-15.279-2.0261zm-386.55-4.5587c0-1.7358 4.6414-4.1755 10.314-5.4215s11.844-5.1243 13.714-8.6184c2.0029-3.7426 3.4-43.78 3.4-97.436 0-86.511-0.3441-91.427-6.8571-97.94-3.7714-3.7715-9.9429-6.8572-13.714-6.8572s-6.8571-1.5428-6.8571-3.4285c0-2.1885 29.143-3.4286 80.571-3.4286h80.571v24c0 13.2-1.4232 24-3.1627 24-1.7394 0-4.9368-5.3759-7.1053-11.946s-7.8962-15.056-12.728-18.857c-7.5872-5.968-13.88-6.9107-46.137-6.9107h-37.351l0.9566 45.429 0.9567 45.428 26.896 1.0073c16.969 0.6354 28.686-0.4781 31.745-3.0168 2.6667-2.2131 5.8033-9.9949 6.9703-17.293 1.167-7.2979 3.4675-13.269 5.1122-13.269s2.9904 17.743 2.9904 39.429-1.3457 39.429-2.9904 39.429-3.9849-6.2195-5.2004-13.821c-1.7251-10.788-4.21-14.581-11.323-17.286-5.0123-1.9057-19.258-3.0148-31.657-2.4647l-22.544 1.0001 1.1588 46.286c0.9544 38.117 2.1646 47.083 6.8572 50.804 4.1016 3.252 15.526 4.2127 40.771 3.4286 32.417-1.0069 35.743-1.7602 43.922-9.9462 4.8669-4.8712 10.908-14.846 13.424-22.166 2.5165-7.3199 6.199-13.85 8.1834-14.512 2.4136-0.8045 3.0059 7.1008 1.789 23.88-1.0005 13.796-2.4137 27.011-3.1404 29.368-1.0101 3.2762-21.133 4.2857-85.429 4.2857-48.946 0-84.108-1.3194-84.108-3.1562z" fill="#d1a054"/>
  <path d="m1542.9 3276.6c-13.641-1.5873-44.498-6.8612-68.572-11.72-24.074-4.8584-65.273-15.975-91.554-24.703-26.281-8.7283-70.253-27.032-97.714-40.675-27.462-13.643-66.13-35.614-85.93-48.825s-48.343-34.049-63.429-46.308c-15.086-12.258-39.771-34.925-54.857-50.37l-27.429-28.082 29.143 2.2644c16.029 1.2454 42.257 4.5199 58.286 7.2767s43.198 8.6309 60.376 13.054c26.638 6.8582 36.978 11.857 70.286 33.978 21.479 14.265 54.184 33.682 72.676 43.149 18.493 9.4669 47.907 22.747 65.365 29.511 17.458 6.7644 47.842 16.952 67.52 22.64 19.678 5.6874 53.521 13.524 75.207 17.416 26.911 4.829 60.696 7.6323 106.42 8.83 51.017 1.3365 77.757 0.3845 112.15-3.9926 24.836-3.1612 60.262-9.4136 78.724-13.894 18.462-4.4808 48.225-13.011 66.139-18.957 17.914-5.9456 55.714-21.984 84-35.642 28.286-13.657 64.543-33.035 80.571-43.061s43.029-28.682 60-41.458 47.443-38.914 67.714-58.084c20.271-19.171 36.857-33.469 36.857-31.775s-12.902 19.18-28.67 38.857c-15.769 19.677-43.508 50.608-61.642 68.737-18.134 18.128-45.424 42.814-60.644 54.857-15.22 12.043-42.769 31.437-61.221 43.098-18.452 11.66-50.389 29.608-70.972 39.884-20.583 10.275-52.852 24.457-71.709 31.514-18.857 7.0575-54.343 17.894-78.857 24.081s-63.613 13.708-86.886 16.713c-25.891 3.3434-64.482 5.2916-99.428 5.0195-31.413-0.2447-68.275-1.7436-81.915-3.331zm442.59-308.29c-7.8162-1.584-21.764-6.7071-30.995-11.385-9.2309-4.6777-23.411-15.694-31.51-24.482-8.0997-8.7872-19.494-26.164-25.321-38.616-8.0435-17.189-10.958-28.92-12.104-48.729-0.8307-14.35 0.2615-34.625 2.4271-45.057s8.5023-28.619 14.082-40.416c6.1424-12.988 17.933-29.238 29.889-41.194 12.194-12.193 28.267-23.79 42.03-30.326 12.257-5.8202 31.44-12.254 42.63-14.298 11.189-2.0437 47.061-3.7158 79.714-3.7158h59.37v104.68c0 82.279 1.0336 107.16 4.8298 116.24 2.6564 6.3577 8.0564 12.584 12 13.835 6.5695 2.0851 7.1702 4.8412 7.1702 32.902v30.626h-9.6126c-5.2869 0-17.807-4.0837-27.823-9.0748-12.816-6.3863-21.064-13.574-27.842-24.261-8.8818-14.005-9.913-14.659-13.261-8.4032-1.9966 3.7306-10.985 12.085-19.975 18.565-8.9894 6.4803-22.516 14.147-30.059 17.037-7.5428 2.8901-22.2 6.0858-32.571 7.1015s-25.252 0.5508-33.068-1.0332zm60.9-58.273c6.8218-1.8949 17.622-6.913 24-11.151s15.068-14.578 19.311-22.976c7.2013-14.255 7.7142-19.644 7.7142-81.053v-65.783l-23.143-2.2313c-12.729-1.2272-31.402-0.6221-41.496 1.3446-10.094 1.9667-26.022 7.7497-35.395 12.851-9.373 5.1014-21.589 15.017-27.148 22.035-5.5582 7.0177-13.386 20.175-17.395 29.238-5.0128 11.332-7.2891 23.488-7.2891 38.924 0 15.15 2.2477 27.434 6.9156 37.794 3.8036 8.4417 11.571 19.714 17.26 25.048 5.6897 5.3348 16.305 11.824 23.589 14.421s19.415 4.7804 26.958 4.8526c7.5428 0.072 19.296-1.419 26.118-3.3139zm266.15 58.047c-7.0791-1.6685-20.332-6.8144-29.452-11.435-9.1192-4.6211-21.686-14.216-27.925-21.323-6.2396-7.1065-15.358-21.477-20.263-31.934-8.6566-18.456-8.95-21.296-10.006-96.849l-1.0874-77.836-38.968-2.0427v-54.857l19.714-1.0283 19.714-1.0282 2e-4 -29.829 3e-4 -29.829 58.285-39.752v99.541l84 1.9254 1.9916 56.571h-85.992v66.634c0 38.641 1.5287 70.689 3.6389 76.286 2.0013 5.3085 8.4063 14.595 14.233 20.636 5.8269 6.0414 14.989 11.95 20.361 13.13l9.7667 2.1451v32.299c0 17.764-1.1571 32.144-2.5714 31.955-1.4143-0.1895-8.3635-1.7095-15.443-3.3779zm-910.02-4.4418c-7.8744-2.5721-19.682-7.9926-26.24-12.045-6.5577-4.0529-17.418-13.451-24.134-20.885-6.7161-7.4339-16.002-20.998-20.636-30.141-4.6335-9.1437-10.243-26.556-12.467-38.694-2.2331-12.193-3.094-31.495-1.9237-43.129 1.1651-11.583 5.0943-29.709 8.7317-40.281 3.6373-10.572 12.156-27.572 18.929-37.777 6.7739-10.205 18.815-23.763 26.758-30.128 7.9429-6.3654 18.837-14.353 24.21-17.751 5.3724-3.3977 18.487-9.3728 29.143-13.278 16.606-6.0858 29.542-7.3172 90.518-8.6164l71.143-1.5158 0.019 100.63c0.011 59.28 1.4887 105.92 3.5955 113.51 2.0802 7.4906 7.8094 16.008 13.695 20.359 9.7945 7.2414 10.119 8.3948 10.119 35.979 0 27.63-0.2456 28.498-8.0598 28.498-4.4329 0-13.304-1.7559-19.714-3.9021-6.41-2.1461-16.683-7.6355-22.829-12.199s-14.255-14.334-18.02-21.714l-6.8452-13.418-14.067 15.26c-7.7366 8.3932-22.604 19.437-33.038 24.542-14.901 7.2905-24.935 9.5059-46.771 10.326-17.014 0.6394-33.355-0.7698-42.117-3.6319zm94.35-62.823c9.3015-5.747 19.098-15.535 23.469-23.446 6.8785-12.452 7.5912-19.199 8.5714-81.153l1.0691-67.572-18.318-2.2845c-10.075-1.2565-27.046-1.2949-37.714-0.085-10.668 1.2095-28.953 6.8589-40.632 12.554-12.505 6.098-25.35 15.592-31.244 23.093-5.5051 7.0056-12.795 18.138-16.201 24.738-3.7468 7.2619-6.8122 22.464-7.7634 38.502-1.4008 23.618-0.5686 28.552 7.6478 45.346 5.0708 10.364 13.961 22.221 19.757 26.347s16.114 9.5902 22.931 12.141c7.46 2.7916 20.369 4.0502 32.427 3.1615 14.257-1.0507 24.637-4.3211 36-11.342zm-518.29 61.878c-1.2756-1.2756-2.3192-5.0275-2.3192-8.3377s38.041-58.982 84.536-123.71c46.495-64.733 102.79-143.54 125.1-175.12l40.564-57.428h-106.24c-58.434 0-106.24-1.3256-106.24-2.9458 0-1.6201 5.4467-14.734 12.104-29.143l12.104-26.197h145.61c143.55 0 145.61 0.098 145.61 6.8885 0 3.7888-30.615 50.46-68.032 103.71-37.418 53.254-92.189 131.16-121.71 173.12-29.525 41.964-53.682 77.836-53.682 79.714 0 2.2 40.964 3.4151 115.13 3.4151h115.13l-2.3729 11.143c-1.3051 6.1285-4.8991 18.857-7.9867 28.286l-5.6138 17.143-159.68 0.8907c-87.824 0.4898-160.72-0.153-162-1.4286zm669.68-221.79c0-213.64 0.2944-224.31 6.3438-229.78 3.4891-3.1576 16.218-12.618 28.286-21.023 12.068-8.4049 22.207-14.161 22.532-12.79s1.2816 72.363 2.1272 157.76c0.8457 85.399 2.4004 156.13 3.4551 157.19 1.0547 1.0546 9.3545-3.1512 18.444-9.3462 9.0897-6.1951 26.67-21.387 39.067-33.759s31.425-35.224 42.285-50.781l19.746-28.286h34c21.56 0 34 1.3233 34 3.6167 0 1.9891-6.3154 12.917-14.034 24.283-7.7189 11.367-26.312 35.93-41.318 54.586-15.006 18.656-36.462 41.903-47.68 51.66s-20.37 18.666-20.339 19.797c0.031 1.1315 27.851 32.914 61.822 70.629l61.765 68.571-80.786 2.0425-9.5117-11.307c-5.2315-6.2188-29.146-33.194-53.143-59.946-23.997-26.751-44.788-48.737-46.203-48.857s-2.5714 26.782-2.5714 59.782v60h-58.286zm-691.87 142.61c-9.2834-16.499-22.68-43.112-29.769-59.141-7.0895-16.029-17.387-42.257-22.883-58.286-5.496-16.029-13.732-43.822-18.303-61.762-4.5706-17.941-10.819-47.255-13.886-65.143-3.1996-18.662-6.3743-62.608-7.4487-103.11-1.1563-43.589-0.37247-83.586 2.0493-104.57 2.157-18.691 7.1344-50.184 11.061-69.984s14.735-59.143 24.018-87.428c9.2832-28.286 26.775-71.486 38.87-96s32.774-60.772 45.952-80.572 32.622-46.8 43.208-60c10.586-13.2 33.464-38.511 50.84-56.247s44.956-43.417 61.29-57.069c16.334-13.652 44.877-34.828 63.429-47.057s50.83-30.837 71.73-41.35c20.9-10.512 51.04-24.371 66.979-30.797 15.939-6.4256 42.81-15.744 59.715-20.708 16.905-4.9635 44.621-11.991 61.593-15.617 16.971-3.6259 45.514-8.5466 63.429-10.935s59.571-4.2714 92.571-4.1843c37.168 0.098 75.518 2.3668 100.78 5.9621 22.428 3.1921 58.286 10.318 79.683 15.835s53.961 15.657 72.364 22.533c18.403 6.8761 50.296 20.931 70.873 31.232 20.577 10.302 49.46 26.202 64.184 35.334 14.724 9.1322 39.546 26.241 55.159 38.019s43.595 36.182 62.183 54.232c18.587 18.049 43.454 45.159 55.258 60.245s28.611 38.13 37.348 51.21 15.885 25.129 15.885 26.777c0 1.6477-17.205-14.901-38.234-36.776-21.029-21.874-50.039-49.618-64.467-61.652-14.428-12.034-43.123-33.267-63.766-47.184-20.643-13.917-54.504-33.909-75.247-44.428-20.743-10.518-51.704-24.675-68.803-31.458s-50.27-17.58-73.714-23.993c-23.444-6.4125-61.14-14.421-83.769-17.797-28.246-4.2143-60.488-6.0939-102.86-5.9964-40.375 0.093-74.715 2.1575-99.312 5.9705-20.679 3.2056-54.993 10.314-76.254 15.796s-53.714 15.572-72.117 22.423c-18.403 6.8506-48.496 19.975-66.874 29.165-18.378 9.1899-46.089 24.57-61.58 34.178-15.491 9.6079-41.155 27.612-57.03 40.008s-38.897 31.924-51.16 43.395-34.636 35.531-49.719 53.467c-15.083 17.936-38.192 48.811-51.353 68.611-13.161 19.8-32.132 52.971-42.159 73.714-10.027 20.743-24.365 56.229-31.864 78.857-7.4982 22.629-16.828 57.343-20.732 77.143-3.9044 19.8-8.6813 49.074-10.615 65.053s-3.5166 50.229-3.5166 76.11 2.3703 65.265 5.2674 87.518 9.1296 55.808 13.85 74.565c4.7205 18.757 12.555 45.757 17.411 60 4.8555 14.243 15.072 39.452 22.704 56.019l13.876 30.122-8.1946 11.02c-4.5071 6.0612-20.087 27.605-34.623 47.875l-26.428 36.855z" fill="#779386"/>
  <path d="m1543.7 3276.4c-15.086-1.7013-46.714-7.0299-70.286-11.842-23.571-4.8116-63.686-15.626-89.143-24.031-25.457-8.4055-69.437-26.671-97.733-40.59s-66.867-35.599-85.714-48.178-48.153-34.19-65.125-48.024c-16.971-13.834-42.428-36.957-56.571-51.384l-25.714-26.23 27.429 2.2185c15.086 1.2202 41.314 4.4753 58.286 7.2337 16.971 2.7583 45.219 8.8151 62.773 13.46 26.944 7.1288 37.893 12.401 70.286 33.843 21.104 13.969 51.484 32.35 67.513 40.846 16.029 8.4958 46.927 22.492 68.662 31.103s60.7 21.085 86.588 27.72c25.888 6.635 65.961 14.548 89.052 17.585 31.769 4.1781 59.5 5.1181 113.98 3.8637 44.805-1.0316 83.655-3.7835 102.86-7.2858 16.971-3.0955 46.286-9.5703 65.143-14.388 18.857-4.8182 48.943-14.215 66.857-20.881 17.914-6.6665 52.172-21.872 76.128-33.79 23.956-11.918 58.168-30.852 76.027-42.077s43.855-28.976 57.769-39.448 42.573-35.477 63.687-55.567c21.114-20.09 38.388-35.519 38.388-34.287s-9.6098 14.877-21.355 30.323-39.742 46.991-62.215 70.1c-22.473 23.109-55.84 53.499-74.15 67.534-18.309 14.034-47.784 34.362-65.499 45.172s-50.724 28.509-73.352 39.332-59.908 25.937-82.843 33.588-60.735 17.72-84 22.376c-23.265 4.6558-57.282 10.092-75.593 12.08s-56.111 3.4137-84 3.167c-27.889-0.2466-63.049-1.8403-78.135-3.5415zm766.37-310.08c-10.326-2.7747-25.206-8.8144-33.067-13.421-7.8613-4.607-18.556-13.421-23.766-19.586-5.2099-6.1656-13.426-19.696-18.257-30.067-8.4679-18.178-8.8292-21.662-10.025-96.694l-1.2401-77.837-19.436-1.0199c-10.69-0.5609-19.05-2.177-18.578-3.5913 0.4714-1.4143 0.8571-14.143 0.8571-28.286v-25.714h37.714v-60.126l26.571-17.938c14.614-9.8658 27.686-17.937 29.049-17.937 1.3625 6e-4 2.9054 21.987 3.4286 48.858l0.9513 48.857 84 1.9253v54.646h-85.714v68.032c0 64.532 0.4088 68.805 7.9462 83.059 5.7034 10.785 12.478 17.358 24 23.288l16.054 8.2616v30.394c0 16.717-0.3857 30.292-0.8571 30.168-0.4715-0.1241-9.3055-2.4959-19.631-5.2707zm-909.35-3.872c-8.8681-3.3331-23.073-10.996-31.566-17.028-8.493-6.0322-20.087-17.38-25.765-25.218-5.6776-7.8376-13.295-22.195-16.928-31.905-3.633-9.7102-7.6603-27.676-8.9495-39.925-1.5923-15.128-0.6649-30.258 2.8917-47.178 2.8797-13.7 10.299-34.408 16.487-46.018 6.1883-11.611 18.59-28.334 27.559-37.162 8.9691-8.8287 25.554-20.98 36.854-27.004 11.301-6.0232 30.992-13.165 43.758-15.87 14.928-3.1634 44.252-4.9397 82.176-4.978l58.965-0.059 1.0354 110.11 1.0353 110.11 25.714 22.22v55.845l-9.4286-0.075c-5.1857-0.041-16.344-3.212-24.796-7.0457s-18.259-9.5855-21.793-12.782-9.3569-11.553-12.938-18.571l-6.512-12.759-14.062 15.255c-7.7341 8.3904-22.768 19.412-33.409 24.492-14.82 7.0758-25.764 9.5141-46.776 10.421-20.188 0.8715-31.685-0.4157-43.552-4.8762zm76.527-52.401c6.8218-1.8949 17.622-6.9603 24-11.256s14.956-13.923 19.063-21.393c6.8262-12.418 7.5608-19.37 8.5714-81.124 1.0657-65.121 0.8596-67.608-5.7518-69.382-3.7714-1.0117-16.784-1.8605-28.918-1.8863-12.133-0.026-30.806 2.4069-41.494 5.4059-10.688 2.999-26.967 11.147-36.175 18.106-11.635 8.7939-20.248 19.418-28.239 34.833-10.733 20.705-11.42 24.021-10.336 49.883 0.9926 23.675 2.6646 30.133 11.5 44.42 7.5247 12.167 15.33 19.325 28.677 26.297 11.501 6.008 23.626 9.573 32.518 9.561 7.7989-0.011 19.761-1.5695 26.583-3.4644zm487.49 51.329c-9.802-3.8769-25.592-14.035-35.088-22.573-11.711-10.529-21.421-23.929-30.178-41.647-12.341-24.968-12.912-27.646-12.912-60.588 0-23.27 1.967-40.824 6.0554-54.041 3.3305-10.766 12.669-29.281 20.752-41.143 8.4139-12.348 23.791-28.474 35.971-37.723 12.826-9.7407 30.454-19.15 44.391-23.696 19.834-6.4691 32.978-7.755 92.546-9.0532l69.429-1.5131 0.013 107.49c0.012 101.11 0.4161 108.16 6.8067 118.64 3.7367 6.1286 9.1309 11.143 11.987 11.143 4.2593 0 5.1933 5.628 5.1933 31.295v31.295l-14.572-2.3296c-8.0143-1.2813-20.759-5.9558-28.322-10.388-7.7965-4.5688-17.22-14.231-21.762-22.312l-8.0113-14.254-14.238 14.218c-7.8307 7.8197-21.952 18.222-31.38 23.117-13.967 7.251-22.859 9.1043-48 10.005-24.902 0.8919-34.297-0.2553-48.679-5.9439zm85.024-51.748c6.4099-2.1462 16.837-7.7528 23.17-12.459 6.3338-4.7063 14.4-14.908 17.925-22.669 5.5356-12.19 6.4189-23.07 6.4839-79.866l0.075-65.753-19.128-2.3899c-10.52-1.3144-26.335-1.4113-35.143-0.2153-8.8082 1.1961-23.381 4.6111-32.383 7.589-10.14 3.3541-22.581 11.496-32.696 21.397-8.9804 8.7905-20.029 23.697-24.553 33.126-6.4074 13.354-8.2344 22.826-8.2666 42.857-0.032 19.576 1.6822 28.988 7.1789 39.429 3.9711 7.5429 11.604 17.872 16.963 22.954 5.3584 5.0817 15.142 11.578 21.742 14.437 6.6 2.8587 19.87 5.2581 29.488 5.3319 9.6186 0.074 22.733-1.6217 29.143-3.7678zm-1072.6 49.331c-0.90437-2.3571-0.8494-6.3572 0.12216-8.889 0.97155-2.5319 50.166-72.346 109.32-155.14 59.155-82.797 114.92-160.95 123.92-173.68l16.362-23.143-93.602-0.7385c-51.481-0.4062-99.388-0.4998-106.46-0.208-7.0714 0.2917-12.857 0-12.857-0.6448 0-0.6464 5.1657-13.281 11.479-28.078l11.479-26.902 146.23-0.8939c141.78-0.8668 146.23-0.6954 146.23 5.6315 0 3.5891-35.033 56.448-77.852 117.47-42.818 61.017-98.434 140.25-123.59 176.08l-45.738 65.143 116.73 0.9022c64.203 0.4961 116.71 1.2676 116.67 1.7143-0.032 0.4466-3 12.137-6.5948 25.978s-7.0397 25.645-7.6555 26.231c-0.6157 0.5858-73.445 1.6039-161.84 2.2624-126.31 0.9409-161.07 0.2796-162.37-3.0884zm671.92-219.37 0.8818-225.37 27.428-19.612 27.429-19.612 0.8911 159.26c0.6386 114.15 1.9721 159.26 4.7074 159.26 2.099 0 13.378-6.8231 25.065-15.162 11.687-8.3394 30.175-24.804 41.085-36.589 10.91-11.784 26.778-31.865 35.262-44.624l15.426-23.198 35.685-1.0705c27.775-0.8333 35.313-0.1055 34.006 3.2833-0.9234 2.3946-8.17 13.966-16.103 25.714-7.9335 11.748-22.39 31.389-32.125 43.646-9.7355 12.257-26.038 30.896-36.228 41.42s-23.5 22.873-29.576 27.442l-11.049 8.3079 59.049 65.428c32.477 35.985 61.166 67.994 63.754 71.129 4.3429 5.2621 1.5684 5.6863-36 5.5044l-40.706-0.1972-53.143-59.741c-29.229-32.858-54.3-59.769-55.714-59.803-1.4143-0.034-2.5714 26.938-2.5714 59.938v60h-58.335zm-687.78 152.72c-6.6531-11.904-19.826-37.844-29.274-57.644s-23.347-54.514-30.888-77.143c-7.5407-22.628-17.556-60.428-22.256-84-4.7002-23.571-10.173-57.839-12.161-76.15-1.9885-18.311-3.6155-57.127-3.6155-86.257s2.4508-72.005 5.4462-95.278 10.623-62.593 16.95-87.377c6.327-24.784 17.149-60.27 24.048-78.857 6.8996-18.587 21.08-51.195 31.512-72.462 10.432-21.268 30.811-56.753 45.287-78.857 14.476-22.104 37.936-54.075 52.133-71.046 14.198-16.971 41.885-46.286 61.529-65.143 19.643-18.857 50.361-45.201 68.262-58.541 17.901-13.34 44.133-31.397 58.294-40.126 14.161-8.7293 45.018-25.066 68.571-36.303s58.377-25.823 77.386-32.413c19.009-6.5895 50.637-15.898 70.286-20.685s53.135-11.102 74.414-14.032c23.817-3.28 63.356-5.3041 102.86-5.2654 38.163 0.037 78.756 2.136 100.17 5.1785 19.798 2.8137 51.427 8.8453 70.286 13.404 18.859 4.5583 48.946 13.143 66.86 19.077 17.914 5.9343 54.172 21.303 80.572 34.152s62.657 32.991 80.571 44.759c17.914 11.768 45.686 31.829 61.714 44.58 16.029 12.751 43.041 37.622 60.028 55.271 16.987 17.648 39.505 43.659 50.04 57.802 10.535 14.143 25.027 34.609 32.206 45.48 7.1783 10.871 12.369 20.449 11.534 21.283s-11.483-10.036-23.663-24.158c-12.18-14.121-37.019-38.854-55.197-54.962-18.179-16.108-45.376-38.333-60.438-49.389s-37.989-26.614-50.948-34.574c-12.959-7.96-43.619-24.292-68.133-36.292-24.514-12.001-65.722-28.662-91.573-37.024-25.851-8.3626-63.17-18.325-82.93-22.138-19.76-3.8134-57.648-8.7532-84.193-10.977-37.2-3.1168-60.239-3.1069-100.5 0.043-28.728 2.2479-66.891 6.961-84.805 10.474-17.914 3.5125-49.491 11.316-70.171 17.342-20.68 6.0256-56.166 18.934-78.857 28.686-22.692 9.7519-57.54 27.44-77.44 39.307-19.9 11.867-49.829 31.852-66.507 44.411-16.678 12.559-42.583 34.366-57.566 48.461s-39.495 40.307-54.471 58.25c-14.976 17.942-36.572 46.575-47.99 63.629-11.418 17.053-29.752 49.52-40.741 72.149-10.989 22.629-24.841 55.029-30.781 72-5.9402 16.971-14.565 46.286-19.166 65.143-4.6009 18.857-10.667 51.722-13.48 73.033-2.8132 21.311-5.1149 61.732-5.1149 89.824 0 28.093 2.3312 68.86 5.1803 90.595 2.8492 21.735 9.6779 56.961 15.175 78.28 5.497 21.319 14.021 49.515 18.942 62.658 4.9209 13.142 14.5 35.777 21.287 50.298l12.34 26.403-20.176 27.567c-11.097 15.162-26.603 36.934-34.459 48.384l-14.283 20.817z" fill="#658676"/>
  <path d="m1552.3 3276.8c-16.029-1.762-45.694-6.3341-65.923-10.16s-50.315-10.799-66.857-15.495c-16.542-4.6961-43.192-13.32-59.22-19.163-16.029-5.8438-49.2-20.39-73.714-32.325-24.514-11.935-60.771-32.316-80.571-45.291s-48.28-33.393-63.288-45.373c-15.008-11.98-40.08-34.062-55.714-49.072-15.634-15.01-28.426-28.548-28.426-30.085s8.1-2.0119 18-1.0555c9.9 0.9565 30.483 3.2229 45.74 5.0365 15.257 1.8135 46.172 7.7982 68.7 13.299 38.399 9.3766 43.339 11.592 79.016 35.428 20.931 13.985 53.597 33.409 72.59 43.165 18.994 9.7563 48.867 23.288 66.386 30.069s43.778 15.912 58.353 20.29 40.803 11.006 58.286 14.729 46.443 8.6984 64.357 11.055 58.8 4.2198 90.857 4.1405c34.515-0.086 74.366-2.4159 97.714-5.7144 21.686-3.0636 54.857-9.3212 73.714-13.906 18.857-4.5846 47.719-12.919 64.138-18.52 16.419-5.6013 47.544-18.181 69.168-27.954s56.443-28.052 77.376-40.618c20.933-12.566 52.014-32.753 69.069-44.859 17.055-12.106 49.75-39.877 72.656-61.714s38.614-34.844 34.906-28.904-19.388 26.083-34.844 44.763c-15.456 18.68-41.685 47.028-58.286 62.996-16.601 15.968-41.31 37.886-54.908 48.706-13.599 10.82-39.056 28.983-56.571 40.362s-51.904 30.553-76.418 42.609c-24.514 12.056-60.592 27.434-80.172 34.172s-48.124 15.479-63.429 19.424-45.57 10.187-67.256 13.872c-25.843 4.3913-61.284 7.1472-102.86 7.9981-34.886 0.7141-76.543-0.1434-92.571-1.9055zm-147.9-313.53c-8.7437-2.8049-23.401-10.248-32.571-16.539-9.1705-6.2918-22.492-19.72-29.602-29.84-7.1107-10.12-15.211-26.085-18-35.478-2.7892-9.3925-5.0714-30.546-5.0714-47.007 0-19.685 2.2109-37.033 6.4594-50.684 3.5527-11.415 10.347-27.388 15.099-35.496 4.7517-8.1083 17.293-22.926 27.869-32.928 10.901-10.309 28.644-22.455 40.967-28.043 13.395-6.0734 32.788-11.263 50.529-13.52 15.835-2.0149 50.762-3.2598 77.616-2.7663l48.825 0.8972 0.032 103.82c0.026 82.82 1.0368 106.23 4.9971 115.71 2.7306 6.5352 8.902 13.676 13.714 15.869 8.3776 3.8171 8.7496 5.2207 8.7496 33.017v29.031l-14.572-2.3296c-8.0142-1.2813-21.088-6.1481-29.052-10.815-8.6203-5.0515-18.151-14.749-23.551-23.963l-9.0706-15.478-11.736 13.711c-6.7338 7.867-21.217 18.378-33.981 24.662-17.408 8.57-27.628 11.203-46.999 12.11-15.564 0.7288-30.656-0.7341-40.652-3.9407zm76.164-53.603c7.1841-2.1524 18.581-8.4627 25.326-14.023 6.7454-5.5601 14.358-14.213 16.917-19.229 3.169-6.2114 5.4437-31.213 7.1325-78.396l2.4797-69.276-9.078-2.2785c-4.9929-1.2531-22.506-1.6036-38.918-0.7788-20.095 1.0097-35.016 3.8174-45.689 8.5968-8.7165 3.9036-22.169 12.808-29.895 19.788s-17.762 20.653-22.302 30.386c-4.5407 9.7328-9.2655 24.72-10.5 33.306s-0.5102 23.695 1.609 33.576c2.1918 10.22 8.5213 24.072 14.68 32.129 5.9549 7.7896 17.627 17.752 25.938 22.138 9.9576 5.2556 20.93 7.9754 32.174 7.9754 9.3846 0 22.941-1.761 30.125-3.9134zm487.73 52.424c-9.7445-3.3675-23.339-10.41-30.209-15.651-6.8705-5.2403-17.776-16.706-24.234-25.48s-15.155-24.438-19.327-34.809c-6.1339-15.249-7.5483-25.417-7.3917-53.143 0.1442-25.551 1.9738-39.182 7.1817-53.507 3.8435-10.572 11.149-25.812 16.234-33.868 5.0853-8.0556 16.156-21.363 24.602-29.571 8.4461-8.2086 26.431-20.368 39.966-27.02 17.384-8.5439 32.662-13.113 52.038-15.561 15.086-1.9064 50.126-3.158 77.868-2.7813l50.439 0.6848 0.9897 111.19 0.9896 111.19 11.143 9.2988c10.927 9.1189 11.143 9.8487 11.143 37.716v28.418l-12.739-2.3898c-7.0063-1.3143-17.421-4.7522-23.143-7.6397s-14.022-8.541-18.444-12.563c-4.422-4.0223-10.289-11.637-13.038-16.921l-4.9977-9.6076-18.688 17.08c-11.116 10.16-26.376 19.956-37.662 24.179-12.465 4.6639-26.869 7.0608-41.989 6.9873-12.902-0.063-30.799-2.8022-40.732-6.2346zm91.364-56.225c8.3045-4.2429 19.817-13.638 25.584-20.878l10.484-13.164 1.7142-70.396 1.7143-70.396-8.5714-3.3515c-4.7143-1.8433-22.042-2.6224-38.506-1.7313-23.186 1.2548-34.132 3.6734-48.55 10.728-10.238 5.0092-24.327 15.43-31.308 23.157-6.9812 7.7273-15.678 20.797-19.326 29.044-3.648 8.247-7.5361 22.622-8.6401 31.944-1.1041 9.3219-0.1663 24.363 2.0839 33.425 2.2502 9.062 8.0294 22.211 12.843 29.22 5.1501 7.4995 15.923 16.318 26.18 21.429 12.916 6.4364 22.836 8.6849 38.314 8.6849 14.9 0 25.214-2.2109 35.985-7.7142zm237.69 55.916c-9.7915-3.5247-23.207-10.53-29.811-15.568-6.6049-5.0378-16.645-16.385-22.312-25.216s-12.695-25.237-15.617-36.457c-3.933-15.1-5.3137-38.031-5.3137-88.252v-67.851h-37.714v-54.857h37.457l1.9716-63.063 25.696-18.183c14.133-10.001 26.861-18.183 28.286-18.183 1.4242 0 2.5895 22.371 2.5895 49.714v49.714h85.714v25.348c0 20.637-1.077 25.761-5.7956 27.572-3.1876 1.2231-22.473 1.1686-42.857-0.1212l-37.062-2.3451 0.056 71.631c0.053 67.692 0.4775 72.385 7.7143 85.345 5.2531 9.4077 12.772 16.251 23.944 21.792l16.286 8.0781v28.779c0 27.596-0.3172 28.774-7.7143 28.655-4.2428-0.068-15.726-3.0075-25.517-6.5321zm-646.28-222.2 1.0627-225.43 9.0781-6.8572c4.993-3.7714 17.243-12.728 27.223-19.903l18.145-13.046v161.33c0 88.732 0.9612 161.33 2.136 161.33s11.736-6.8505 23.47-15.223c11.734-8.3729 32.148-26.804 45.367-40.958s30.042-35.061 37.387-46.461l13.355-20.727 70.959-0.06-6.6857 10.559c-3.6771 5.8076-15.786 23.165-26.908 38.571-11.122 15.407-36.572 44.643-56.556 64.97l-36.333 36.958 50.047 55.319c27.526 30.426 55.062 61.097 61.19 68.159 6.1285 7.0617 11.143 13.751 11.143 14.866s-16.837 2.0264-37.416 2.0264h-37.416l-44.012-48.519c-24.207-26.685-48.368-53.685-53.69-60-5.323-6.3146-11.109-11.481-12.857-11.481-1.8318 0-3.179 25.426-3.179 60v60l-56.571 0.0012zm-674.78 216.3c0-3.1341 51.401-77.577 114.23-165.43 62.824-87.852 119.14-166.95 125.14-175.78s10.918-16.926 10.918-18-47.718-1.9537-106.04-1.9537h-106.04l12.335-27.429 12.335-27.428h291.06l-1.5254 7.7142c-0.8389 4.2429-32.942 52.457-71.341 107.14-38.398 54.686-92.032 131.06-119.19 169.71-27.154 38.657-50.828 72.986-52.608 76.286-3.0539 5.6603 3.3896 6 113.82 6 92.19 0 116.73 0.9105 115.51 4.2857-0.8545 2.3572-4.3343 14.7-7.7329 27.429l-6.1793 23.143h-162.35c-149.06 0-162.35-0.4664-162.35-5.6983zm-5.7838-49.622c-2.1167-2.5737-12.326-20.88-22.687-40.68s-24.631-50.657-31.711-68.571-17.188-47.552-22.463-65.861c-5.2751-18.309-11.996-44.933-14.936-59.164-2.9395-14.231-7.6435-45.527-10.453-69.547s-5.1086-63.748-5.1086-88.285 2.3427-64.661 5.206-89.164 9.2447-61.522 14.181-82.265c4.9362-20.743 14.994-55.457 22.351-77.143 7.357-21.686 23.971-61.028 36.919-87.428 12.949-26.4 34.378-64.2 47.62-84 13.242-19.8 36.423-50.788 51.512-68.862 15.089-18.074 42.588-47.203 61.108-64.732s49.511-43.763 68.869-58.298c19.358-14.535 51.816-35.941 72.128-47.568 20.313-11.627 52.304-27.895 71.09-36.152 18.786-8.2571 51.238-20.633 72.115-27.502 20.877-6.8693 55.591-16.202 77.143-20.739 21.552-4.537 54.167-9.8975 72.479-11.912s56.356-3.6634 84.543-3.6634c28.187 0 70.291 2.4508 93.564 5.4462s63.102 10.753 88.51 17.24c25.407 6.4866 63.979 18.839 85.714 27.45 21.736 8.611 52.634 22.625 68.662 31.143 16.029 8.5178 46.114 26.602 66.857 40.187 20.743 13.585 51.751 36.481 68.907 50.881s39.949 35.639 50.651 47.198 27.716 31.305 37.81 43.879c10.093 12.574 26.258 34.701 35.92 49.171 9.6629 14.47 17.569 27.209 17.569 28.308s-10.549-9.9689-23.442-24.595c-12.893-14.626-35.65-37.518-50.571-50.871-14.921-13.353-37.158-32.057-49.415-41.566-12.257-9.5084-36.73-26.743-54.384-38.299s-52.368-31.005-77.143-43.219c-24.775-12.214-65.942-29.076-91.482-37.47-25.541-8.3944-63.341-18.445-84-22.335-20.659-3.8899-51.448-8.6131-68.42-10.496-16.972-1.8829-48.6-3.4234-70.286-3.4234-21.686 0-53.314 1.5405-70.286 3.4234-16.971 1.883-47.76 6.6062-68.42 10.496-20.659 3.8899-58.411 13.933-83.893 22.318s-63.35 23.443-84.152 33.462c-20.802 10.019-52.262 27.164-69.913 38.1-17.651 10.936-46.965 31.794-65.143 46.35-18.178 14.556-47.749 41.744-65.713 60.416-17.964 18.672-39.726 43.207-48.36 54.521-8.6337 11.314-23.446 32.143-32.916 46.286-9.4698 14.143-25.121 41.371-34.78 60.507-9.6595 19.136-22.999 48.871-29.644 66.077-6.6449 17.206-16.586 48.754-22.092 70.108-5.5058 21.354-12.598 56.419-15.76 77.923-4.584 31.176-5.3785 54.384-3.9206 114.53 1.5272 63.002 3.2687 82.225 10.571 116.68 4.8082 22.69 14.872 59.033 22.365 80.762 7.4926 21.729 19.116 51.562 25.83 66.295l12.207 26.787-28.276 38.253c-15.552 21.039-30.64 41.862-33.529 46.273-4.31 6.5799-5.9445 7.1798-9.1019 3.3406z" fill="#265c42"/>
  <path d="m1564.3 3276.8c-16.971-1.4375-45.514-5.1415-63.429-8.2311s-50.314-10.301-72-16.025-54.086-15.882-72-22.574c-17.914-6.6914-52.032-21.904-75.817-33.805-23.785-11.902-61.585-33.907-84-48.901-22.415-14.994-57.923-42.027-78.906-60.073-20.983-18.046-42.435-37.887-47.67-44.091l-9.519-11.28 16.565-1.0699c9.1108-0.5885 32.105 1.3853 51.099 4.3861 18.994 3.0007 49.962 9.3299 68.819 14.065 29.28 7.3518 39.042 11.776 66.857 30.3 17.914 11.93 43.853 28.192 57.642 36.138 13.789 7.9461 42.82 22.063 64.512 31.371s56.823 22.192 78.068 28.632 55.317 14.929 75.717 18.866c20.4 3.9368 59.984 8.9608 87.965 11.165 39.194 3.0869 62.887 3.0598 103.2-0.1182 28.779-2.2688 71.198-7.9648 94.266-12.658s60.867-14.733 84-22.311 66.797-25.909 97.032-40.737 73.435-39.371 96-54.542c22.565-15.171 49.858-35.019 60.652-44.107 10.794-9.088 32.31-28.095 47.814-42.238l28.19-25.714-14.771 19.679c-8.1239 10.823-16.379 18.685-18.344 17.47-1.9654-1.2147-2.5743-0.592-1.3533 1.3836s-10.702 18.028-26.494 35.673c-15.793 17.644-38.855 40.99-51.249 51.879-12.394 10.889-35.342 29.458-50.995 41.264-15.653 11.806-41.97 29.626-58.483 39.6s-48.903 27.115-71.981 38.092c-23.077 10.977-61.383 26.232-85.125 33.9-23.741 7.668-62.313 17.789-85.714 22.492-23.401 4.7024-61.062 10.145-83.691 12.096-22.628 1.9501-53.486 3.3417-68.571 3.0924-15.086-0.2492-41.314-1.6293-58.286-3.0667zm-155.32-313.75c-9.9992-2.6912-21.408-6.6202-25.352-8.7312-3.9443-2.1109-14.108-10.222-22.587-18.024-8.4786-7.8023-18.926-19.735-23.216-26.517s-10.245-20.562-13.233-30.622-5.3942-29.968-5.3481-44.24c0.046-14.272 1.6437-32.715 3.5501-40.985 1.9065-8.2695 7.6329-23.698 12.725-34.286 5.0953-10.594 18.531-28.612 29.878-40.068 12.117-12.233 28.554-24.553 39.86-29.876 10.582-4.9823 26.011-10.619 34.286-12.527 8.2749-1.9077 44.745-3.5062 81.045-3.5523l66-0.084v104.8c0 69.031 1.2804 107.35 3.7515 112.29 2.0634 4.1189 7.3564 10.575 11.762 14.346 6.7415 5.7706 8.0912 10.388 8.5186 29.143 0.2793 12.257 0.3863 25.015 0.2377 28.351-0.2139 4.804-2.2309 5.6312-9.6987 3.9778-5.1857-1.1481-14.185-3.5265-19.999-5.2853s-15.669-8.1773-21.9-14.264c-6.2309-6.0862-12.811-15.309-14.622-20.494-1.8109-5.1857-4.5726-9.4286-6.137-9.4286-1.5643 0-6.036 4.0576-9.937 9.0169-3.901 4.9594-12.884 13.433-19.963 18.831-7.0788 5.3977-22.676 12.912-34.66 16.697-11.984 3.7859-27.413 6.7818-34.286 6.6577s-20.677-2.4275-30.676-5.1187zm79.924-55.907c7.559-3.434 18.68-11.866 24.713-18.737 6.033-6.8713 12.613-18.598 14.622-26.058 2.1312-7.9146 3.2624-38.996 2.7157-74.616l-0.937-61.051-39.429 0.097c-35.874 0.088-40.974 0.9112-56.571 9.1323-9.4286 4.9698-22.852 14.955-29.831 22.189-6.9784 7.2343-16.213 20.868-20.521 30.296-6.0098 13.152-7.7979 23.129-7.681 42.857 0.1142 19.261 1.9587 29.156 7.3502 39.429 3.9588 7.5429 11.582 17.872 16.94 22.954s15.143 11.578 21.743 14.437c6.6 2.8587 21.257 5.2242 32.571 5.2566 12.695 0.036 25.834-2.3316 34.315-6.1847zm482.71 54.867c-9.806-3.3883-24.028-10.457-31.606-15.708-7.577-5.2509-17.464-14.386-21.97-20.299-4.5065-5.9136-12.238-18.738-17.181-28.499-4.9431-9.761-10.637-28.378-12.653-41.37-2.6209-16.892-2.5994-30.397 0.075-47.396 2.0574-13.075 8.2498-33.473 13.761-45.33 5.668-12.194 18.264-30.201 29.002-41.458 10.44-10.945 26.424-23.95 35.519-28.901 9.0959-4.9506 25.618-11.366 36.716-14.257 14.754-3.8428 37.957-5.2557 86.315-5.2557h66.137v216.69l12 12c11.709 11.709 12 12.663 12 39.358v27.358l-11.143-2.3343c-6.1286-1.2839-17.482-5.0803-25.229-8.4364-7.7474-3.3562-18.162-11.445-23.143-17.976-4.9812-6.5307-9.0567-13.657-9.0567-15.836 0-2.1792-1.7065-3.9621-3.7922-3.9621-2.0858 0-6.8314 3.8635-10.546 8.5856-3.7143 4.7221-13.237 13.046-21.161 18.498-7.9242 5.4521-22.744 12.389-32.934 15.414s-26.346 5.4512-35.904 5.3897c-9.5578-0.062-25.401-2.8842-35.207-6.2725zm88.44-55.578c6.7785-3.4126 17.17-11.724 23.093-18.47 5.9228-6.7457 11.546-15.708 12.497-19.916s2.1299-37.421 2.6209-73.806l0.8928-66.154-7.8407-1.9636c-4.3124-1.0799-22.055-1.2962-39.429-0.4805-24.053 1.1293-35.268 3.3567-47.016 9.3384-8.4857 4.3204-21.348 13.477-28.582 20.349-7.2344 6.8715-17.241 20.208-22.238 29.636-7.7523 14.629-9.0913 21.416-9.1324 46.286-0.042 25.677 1.0749 31.053 9.3937 45.205 5.193 8.8339 14.356 19.561 20.362 23.837 6.0058 4.2765 17.957 9.6907 26.558 12.032 8.6011 2.3408 22.581 3.3684 31.067 2.2836s20.975-4.7644 27.753-8.1769zm244.82 57.167c-7.5428-2.3855-18.423-6.7924-24.178-9.7931-5.755-3.0007-16.732-12.257-24.394-20.569s-17.516-24.245-21.898-35.406c-7.2932-18.576-8.0855-26.746-9.3649-96.579l-1.3978-76.286h-37.053v-51.429h37.457l1.9716-62.281 53.143-37.345 0.5077 42.099c0.2792 23.154 0.6649 45.184 0.8571 48.956 0.3267 6.4094 3.0922 6.92 42.35 7.8198l42 0.9627v51.006l-84 1.9253-0.9434 58.184c-0.5354 33.014 0.6852 66.029 2.8216 76.32 2.0708 9.9749 7.5784 22.668 12.239 28.207 4.6607 5.5389 14.577 12.763 22.036 16.054l13.562 5.9833v28.483c0 24.928-0.7488 28.454-6 28.254-3.3-0.1261-12.171-2.1811-19.714-4.5666zm-652.31-223.98 0.8818-225.35 24-18.009c13.2-9.9048 25.157-18.04 26.572-18.079 1.4143-0.039 2.5714 71.673 2.5714 159.36 0 87.686 0.8561 159.43 1.9024 159.43s11.276-6.3655 22.733-14.146 29.846-23.303 40.866-34.494c11.019-11.192 28.667-32.598 39.218-47.569l19.182-27.22h68.355l-14.45 21.429c-7.9472 11.786-25.796 35.6-39.664 52.922-13.868 17.321-36.114 41.585-49.437 53.919l-24.222 22.426 47.473 52.022c26.11 28.612 54.03 59.632 62.044 68.933s14.571 17.556 14.571 18.345-16.724 1.4343-37.164 1.4343h-37.164l-112.53-124.96-0.9345 62.48-0.9345 62.48h-54.752zm-676.26 216.74c0-2.8861 41.158-62.687 91.463-132.89 50.304-70.204 105.9-148.09 123.54-173.08 17.641-24.988 32.962-47.745 34.047-50.571 1.7266-4.4993-11.364-5.1395-105.1-5.1395-85.125 0-106.4-0.8785-103.79-4.2857 1.8078-2.3572 7.6282-14.7 12.934-27.429l9.6472-23.143h145.2c100.49 0 145.2 1.1252 145.2 3.6539 0 2.0097-1.6881 6.8084-3.7515 10.664-2.0633 3.8553-40.164 58.911-84.667 122.35-44.504 63.435-98.358 140.29-119.68 170.78-21.319 30.494-38.761 56.317-38.761 57.384s52.261 2.3458 116.14 2.8419l116.14 0.9022-14.558 51.429-162 0.8907c-143.54 0.7892-162 0.2926-162-4.3567zm-13.319-63.454c-6.015-10.337-17.626-32.68-25.803-49.652-8.1765-16.971-20.34-45.514-27.03-63.428-6.6898-17.914-16.275-48.772-21.3-68.572s-11.177-47.571-13.671-61.714c-2.4938-14.143-6.428-47.314-8.7426-73.714-2.4031-27.409-3.3316-66.54-2.1644-91.218 1.1242-23.77 4.5156-60.027 7.5364-80.571s9.2724-52.366 13.892-70.714c4.62-18.348 13.127-47.469 18.904-64.713 5.7773-17.244 15.989-43.889 22.692-59.211 6.7031-15.322 18.463-39.43 26.134-53.573 7.6704-14.143 20.795-36.514 29.166-49.714 8.3711-13.2 25.295-37.114 37.608-53.143s33.628-41.516 47.366-56.64c13.738-15.123 38.086-38.874 54.105-52.78 16.02-13.905 41.074-34.16 55.677-45.01 14.603-10.85 31.269-22.418 37.035-25.708 5.7665-3.2892 8.9416-4.4855 7.0559-2.6584-1.8857 1.827-14.228 10.807-27.428 19.956-13.2 9.1489-28.292 20.158-33.538 24.464-5.2456 4.3064-9.4885 9.0453-9.4285 10.531 0.06 1.4856-1.0481 2.7034-2.4624 2.7064-1.4143 0-7.6039 3.5923-13.755 7.9764-6.4903 4.6262-10.216 9.6596-8.8789 11.995 1.2674 2.213 0.9836 2.8217-0.6306 1.3527-1.6141-1.469-13.357 7.6719-26.096 20.313-12.739 12.641-22.485 24.079-21.658 25.417 0.827 1.3381-5.2696 8.6761-13.548 16.307s-14.365 14.56-13.526 15.399c0.8387 0.8387-3.2872 5.5741-9.1686 10.523-5.8815 4.9489-9.4181 9.0535-7.8591 9.1214 1.559 0.068-1.5646 3.7218-6.9413 8.1199-8.1546 6.6705-8.6748 7.9294-3.137 7.591 3.6513-0.2231 10.943-5.0342 16.204-10.691 5.2606-5.6571 7.7753-7.7481 5.5881-4.6466s-3.7398 6.9587-3.4504 8.5714c0.2895 1.6128 0.3437 4.8609 0.1203 7.2181-0.2233 2.3571-2.8853 4.2857-5.9156 4.2857-3.445 0-4.7832 1.8933-3.571 5.0522 1.0693 2.7866-0.688 6.5835-3.9189 8.4671-3.2217 1.8783-4.3148 3.5704-2.429 3.7603 1.8857 0.1898 0.4669 1.5059-3.1528 2.9244-5.2251 2.0477-3.1053 3.5472 10.286 7.2761 9.2769 2.5832 18.91 6.7186 21.408 9.1896 3.7655 3.726 3.6192 4.8464-0.8571 6.5641-2.9687 1.1392-5.3976 4.8633-5.3976 8.2759 0 3.4125 1.9285 7.0077 4.2857 7.9892 3.0398 1.2658 2.3509 3.3424-2.3696 7.1428-4.3228 3.4804-5.0378 5.3583-2.04 5.3583 3.4819 0 3.2218 1.5397-1.059 6.27-3.1209 3.4484-5.6743 9.7109-5.6743 13.917s-1.4074 6.7768-3.1276 5.7137c-1.7201-1.0631-2.7425 0.6907-2.2718 3.8975 0.4706 3.2068 2.3836 6.3398 4.2511 6.9623 1.8674 0.6224 5.2496-2.938 7.516-7.9122 3.1156-6.8379 3.1573-10.205 0.171-13.803-2.5262-3.0438-2.6657-4.7591-0.3871-4.7591 1.9595 0 4.1784 1.847 4.9309 4.1044 0.7524 2.2574 7.3484-5.0711 14.658-16.286 7.3093-11.215 23.626-33.504 36.26-49.533s26.071-31.943 29.859-35.366c3.9284-3.5492 7.7662-4.8026 8.9317-2.9168 1.1239 1.8186-3.2396 7.9452-9.6969 13.615-6.4572 5.6695-11.126 10.922-10.376 11.673 0.7506 0.7506-5.2873 8.6102-13.418 17.466-8.1303 8.8555-14.251 16.101-13.601 16.101 0.6497 0-8.1659 13.879-19.59 30.843-11.424 16.964-29.846 49.749-40.937 72.857-11.091 23.108-25.646 58.571-32.345 78.807-6.6988 20.236-16.046 55.722-20.772 78.857s-10.344 64.436-12.485 91.779c-2.9366 37.508-2.907 61.597 0.12079 98.113 2.2072 26.619 7.7202 66.276 12.251 88.125 4.531 21.85 13.761 56.233 20.512 76.408 6.7508 20.174 18.337 49.618 25.746 65.43l13.472 28.749-29.837 40.622c-16.41 22.342-31.53 43.471-33.599 46.954-3.3478 5.6335-4.9684 4.2595-14.699-12.463zm85.319-788.71c0-1.7744-1.5429-3.2262-3.4286-3.2262s-3.4286 2.4053-3.4286 5.3452 1.5429 4.3917 3.4286 3.2262c1.8857-1.1654 3.4286-3.5707 3.4286-5.3452zm-27.593-27.226c1.9762 0 3.5931-3.0857 3.5931-6.8571 0-3.7715-0.6973-6.8572-1.5496-6.8572s-6.3748 7.3286-12.272 16.286c-8.8771 13.482-9.2288 14.663-2.0434 6.8572 4.7736-5.1857 10.296-9.4286 12.272-9.4286zm94.45 3.4286c3.4131-3.7715 5.4342-6.8572 4.4914-6.8572-0.9429 0-4.5069 3.0857-7.92 6.8572-3.413 3.7714-5.4342 6.8571-4.4913 6.8571s4.5068-3.0857 7.9199-6.8571zm20.571-24c3.4131-3.7715 5.4342-6.8572 4.4914-6.8572-0.9429 0-4.5068 3.0857-7.9199 6.8572-3.4131 3.7714-5.4342 6.8571-4.4914 6.8571 0.9429 0 4.5069-3.0857 7.9199-6.8571zm-90.42-26.572c4.2647-5.4379 4.1435-5.5591-1.2944-1.2944-3.3 2.588-6 5.288-6 6 0 0.7119 0.5825 1.2944 1.2944 1.2944 0.712 0 3.412-2.7 6-6zm23.563-26.571c4.4288-4.7143 7.281-8.5714 6.3382-8.5714-0.9429 0-5.3379 3.8571-9.7668 8.5714-4.4288 4.7143-7.281 8.5714-6.3381 8.5714 0.9428 0 5.3379-3.8571 9.7667-8.5714zm-10.286 115.52c0-1.7895 2.3143-5.1744 5.1428-7.5219 2.8286-2.3475 5.1429-3.1976 5.1429-1.8892 0 1.3085-2.3143 4.6933-5.1429 7.5219-2.8285 2.8285-5.1428 3.6787-5.1428 1.8892zm-25.714-31.522c1.1654-1.8857 3.5708-3.4286 5.3452-3.4286s3.2262 1.5429 3.2262 3.4286-2.4053 3.4286-5.3452 3.4286c-2.9398 0-4.3916-1.5429-3.2262-3.4286zm1167.6-28.512c-15.942-17.318-22.499-25.389-14.571-17.935s14.413 12.006 14.413 10.114c0-1.8913-1.1572-4.9369-2.5714-6.7679-1.4143-1.8311 0.8956 0.5603 5.1332 5.3143 4.2376 4.7539 12.274 15.972 17.858 24.929 5.5845 8.9571 9.8317 16.184 9.4382 16.059-0.3936-0.1246-13.759-14.396-29.7-31.714zm10.127 3.2178c0-0.7119-2.7-3.4119-6-6-5.4379-4.2647-5.5592-4.1434-1.2945 1.2945 2.5881 3.3 5.2881 6 6 6 0.712 0 1.2945-0.5825 1.2945-1.2945zm-1064.2-22.036c-1.1289-1.8266 0.4818-5.4246 3.5794-7.9954 3.0977-2.5708 6.5521-4.4428 7.6766-4.1599 1.1244 0.2829 1.7081-0.7263 1.2969-2.2426-0.4111-1.5163 1.2603-4.4232 3.7143-6.4598 3.3161-2.7521 4.4618-2.4205 4.4618 1.2914 0 2.747-4.2022 9.0204-9.3382 13.941s-10.262 7.452-11.391 5.6253zm1012.5-23.709c-4.5715-5.1286-5.8557-7.4563-2.8536-5.1726s6.4735 3.3942 7.7143 2.4677 1.4979-0.6694 0.5714 0.5714 0.034 4.3265 2.1341 6.8572c2.1003 2.5306 3.1273 4.6011 2.2822 4.6011-0.845 0-5.2768-4.1961-9.8484-9.3248zm16.965-0.1037c-4.2647-5.4379-4.1435-5.5592 1.2944-1.2945 3.3 2.588 6 5.288 6 6 0 0.7119-0.5825 1.2945-1.2944 1.2945-0.712 0-3.412-2.7-6-6zm-1002.2-3.9929c-1.1039-1.7862-0.5457-4.1508 1.2405-5.2547s4.1508-0.5457 5.2547 1.2404c1.1039 1.7862 0.5457 4.1508-1.2405 5.2548-1.7861 1.1039-4.1508 0.5457-5.2547-1.2405zm983.6-18.293-10.07-11.143 11.143 10.07c6.1286 5.5385 11.143 10.553 11.143 11.143 0 0.59-0.4827 1.0728-1.0728 1.0728-0.59 0-5.6043-5.0143-11.143-11.143zm-966.81 4.0139c-1.5701-2.5405-1.1869-3.3393 0.9642-2.0099 1.9634 1.2134 5.2741 0.1527 7.3571-2.3572 2.083-2.5098 2.9266-5.4241 1.8747-6.476-1.052-1.052-0.3738-2.8638 1.5071-4.0262 1.8808-1.1625 4.2502-0.7698 5.2653 0.8726 1.015 1.6423-1.8013 6.4121-6.2586 10.6-5.9668 5.6056-8.7912 6.5015-10.71 3.3972zm27.025-21.442c0-2.5143 2.0327-4.5715 4.517-4.5715 3.3755 0 3.5582 1.1554 0.7231 4.5715-2.0867 2.5143-4.1193 4.5714-4.517 4.5714s-0.7231-2.0571-0.7231-4.5714zm13.714-10.706c0-2.7457 1.3109-4.1819 2.9131-3.1917s2.0254 3.2366 0.9405 4.992-2.3958 3.1917-2.9131 3.1917-0.9405-2.2464-0.9405-4.992zm869.45-28.437-8.3119-9.4286 9.4286 8.312c5.1857 4.5715 9.4285 8.8144 9.4285 9.4286 0 0.6141-0.5025 1.1166-1.1166 1.1166-0.6142 0-4.857-4.2429-9.4286-9.4286zm-874.03-70.902c0-0.9428 3.0857-3.3657 6.8571-5.3841 3.7715-2.0184 6.8572-2.8984 6.8572-1.9555 0 0.9428-3.0857 3.3657-6.8572 5.3841-3.7714 2.0184-6.8571 2.8984-6.8571 1.9555zm24-13.816c0-0.9428 6.1714-4.8627 13.714-8.7108 7.5428-3.848 13.714-6.225 13.714-5.2822 0 0.9429-6.1715 4.8627-13.714 8.7108-7.5429 3.8481-13.714 6.2251-13.714 5.2822zm343.71-96.959c10.843-0.6804 28.586-0.6804 39.429 0 10.843 0.6804 1.9714 1.2371-19.714 1.2371s-30.557-0.5567-19.714-1.2371z" fill="#184b35"/>
  <path d="m1588.3 3278.3c-9.4286-0.662-31.8-2.9039-49.714-4.9821s-47.229-6.7613-65.143-10.407c-17.914-3.6456-45.686-10.532-61.714-15.303-16.028-4.7709-43.8-14.22-61.714-20.997-17.914-6.7777-47.822-19.929-66.462-29.226-18.64-9.2968-47.73-25.464-64.646-35.928-16.916-10.464-42.744-28.058-57.396-39.099s-38.124-30.518-52.161-43.284c-14.036-12.765-30.808-29.245-37.271-36.622l-11.75-13.413 32.05 2.4195c17.627 1.3307 46.686 5.431 64.575 9.1118s42.032 9.1392 53.65 12.13c14.9 3.835 32.239 12.836 58.839 30.544 20.743 13.809 50.829 32.116 66.857 40.682 16.028 8.5659 46.114 22.38 66.857 30.699 20.743 8.3185 51.6 19.104 68.571 23.968 16.972 4.8638 47.057 11.989 66.857 15.835s51.978 8.5704 71.506 10.5c19.528 1.9297 50.503 3.5085 68.833 3.5085 18.33 0 50.181-1.64 70.78-3.6445 20.599-2.0045 55.967-7.3414 78.596-11.86 22.629-4.5185 58.066-13.825 78.75-20.682 20.684-6.8565 54.627-20.134 75.428-29.506 20.802-9.3715 50.164-24.123 65.25-32.781 15.086-8.6584 31.286-18.174 36-21.147 7.9891-5.0373 8.2592-5.0099 3.9761 0.4036-2.5275 3.1945-7.5642 6.7503-11.193 7.902-3.6285 1.1516-5.5651 3.7641-4.3035 5.8054s0.8983 2.8989-0.8073 1.9058c-1.7057-0.993-5.8003 0.8257-9.0992 4.0417-4.9396 4.8155-5.0909 5.8473-0.8572 5.8473 2.8275 0 5.1409-1.2857 5.1409-2.8571 0-1.5715 3.0857-2.8572 6.8571-2.8572 3.7715 0 6.8572 0.9099 6.8572 2.0219s-3.2315 4.6385-7.1811 7.8367c-7.1035 5.7521-7.1062 5.8149-0.2517 5.8149 3.8111 0 6.2882-1.0374 5.5045-2.3054-0.7836-1.268 0.7486-4.1092 3.405-6.3138 3.8208-3.171 4.6652-2.8867 4.0419 1.3605-0.4334 2.9529-2.6238 7.2047-4.8676 9.4485s-4.0796 2.8286-4.0796 1.2997-3.0344 0.8626-6.7431 5.3143c-3.7087 4.4518-6.7944 7.0107-6.8571 5.6864-0.063-1.3242-4.149 1.3317-9.0805 5.9021-4.9316 4.5704-23.422 16.936-41.089 27.478-17.667 10.542-47.961 26.634-67.319 35.76-19.358 9.1255-50.707 21.986-69.663 28.579-18.956 6.593-50.585 15.951-70.286 20.796-19.701 4.8447-52.019 11.055-71.819 13.801-19.8 2.7459-56.829 5.673-82.286 6.5048-25.457 0.8317-54 0.9706-63.429 0.3086zm473.23-148.06c-1.0556-1.0556-3.8222 0-6.1479 2.341-3.3609 3.3861-2.9671 3.7799 1.9193 1.9193 3.3813-1.2876 5.2842-3.2047 4.2286-4.2603zm31.148-17.188c-1.111-1.7975 0.1535-5.072 2.8099-7.2766 3.8106-3.1625 4.6677-2.9037 4.0615 1.2266-0.4226 2.8792-1.6871 6.1536-2.81 7.2765s-2.9505 0.571-4.0614-1.2265zm21.077-14.646c2.3083-3.002 3.4407-6.2145 2.5165-7.1387s6.6738-9.6537 16.884-19.399 19.825-17.718 21.366-17.718c1.5403 0-5.284 7.0722-15.165 15.716s-17.22 16.923-16.308 18.399-1.7503 5.5891-5.9162 9.1411c-4.7768 4.0729-6.0243 4.4422-3.3775 0.9999zm24.828-45.55c0-0.712 2.7-3.412 6-6 5.4379-4.2647 5.5592-4.1434 1.2945 1.2945-2.5881 3.3-5.2881 6-6 6-0.712 0-1.2945-0.5825-1.2945-1.2945zm30.031-16.127c4.2601-4.8407 6.9762-9.5707 6.0357-10.511-0.9404-0.9404 3.2883-6.214 9.3972-11.719 6.1089-5.505 9.2153-7.8207 6.903-5.1459-2.7513 3.1826-3.0623 6.2392-0.9 8.8446 2.2537 2.7155 0.5927 6.5286-5.2244 11.994-4.6907 4.4067-8.5286 6.7327-8.5286 5.1689s-3.4714 0.085-7.7143 3.6635l-7.7143 6.5069zm19.215-17.621c-1.243-2.0112-3.4413-1.8482-5.7131 0.4235-2.0309 2.0309-4.0541 6.1558-4.4959 9.1664-0.7069 4.8161-0.021 4.7652 5.713-0.4236 3.584-3.2434 5.6072-7.3683 4.496-9.1663zm-32.104 20.034c0-0.7119 2.7-3.4119 6-6 5.4379-4.2647 5.5591-4.1434 1.2944 1.2945-2.588 3.3-5.288 6-6 6-0.7119 0-1.2944-0.5825-1.2944-1.2945zm43.303-32.27c-1.0719-1.7345 1.6035-6.4909 5.9454-10.57 6.0678-5.7004 7.8943-6.2156 7.8943-2.2269 0 2.8542-2.6754 7.6106-5.9453 10.57-3.27 2.9592-6.8224 3.9613-7.8944 2.2269zm8.5628-6.7217c4.2647-5.4379 4.1434-5.5592-1.2945-1.2945-3.3 2.588-6 5.288-6 6s0.5825 1.2945 1.2945 1.2945c0.7119 0 3.4119-2.7 6-6zm-792.06-35.237c-8.2769-1.7271-21.391-6.4014-29.143-10.388-7.7517-3.986-20.006-12.901-27.233-19.812s-17.003-19.1-21.726-27.088c-4.7232-7.9879-10.75-22.645-13.392-32.571s-4.8228-28.138-4.8452-40.47c-0.022-12.332 2.2608-31.258 5.0736-42.058 2.8129-10.799 9.1404-27.58 14.061-37.291 4.9207-9.7106 16.943-25.652 26.717-35.425 9.7733-9.7733 21.536-19.785 26.139-22.249 4.6033-2.4636-1.2274 4.406-12.957 15.266s-20.538 21.022-19.573 22.583c0.9645 1.5607 0.1564 3.8248-1.796 5.0314-1.9523 1.2066-7.3775 9.7477-12.056 18.98s-8.5062 17.56-8.5062 18.507c0 0.9463 2.2168 0.87 4.9263-0.1698 2.7095-1.0397 4.0923-4.064 3.0729-6.7206-1.0195-2.6566 0.6208-5.7797 3.645-6.9402 3.0243-1.1605 5.4986-4.4243 5.4986-7.2529 0-3.281 1.9634-4.3894 5.4233-3.0617 2.9828 1.1446 6.1596 2.0811 7.0595 2.0811s0.5206 1.805-0.8429 4.0112c-1.7136 2.7727-0.4528 3.2994 4.0834 1.7058 5.9665-2.0959 6.0416-1.8986 0.8271 2.1733-5.3614 4.1866-5.3614 4.7543 0 8.7076 3.1544 2.326 3.8244 3.32 1.4889 2.2089-2.7682-1.3169-3.536-0.1688-2.2056 3.2981 1.6396 4.2727 3.4655 3.4652 9.2874-4.1076 3.9857-5.1843 13.249-15.597 20.585-23.14s12.305-11.786 11.042-9.4286c-1.2627 2.3572-0.9705 4.2857 0.6494 4.2857s4.4109-1.2233 6.2023-2.7185c1.7915-1.4951-2.9143 3.5144-10.457 11.132-7.5429 7.6179-14.986 13.432-16.541 12.919-1.5544-0.5124-1.9788 0.4397-0.943 2.1157s-1.5189 9.8142-5.6773 18.085c-5.9041 11.743-7.5649 21.047-7.5805 42.466-0.015 20.109 1.6729 30.631 6.3235 39.429 3.489 6.6 10.41 16.384 15.381 21.743 4.9705 5.3584 14.761 12.687 21.758 16.286 8.8679 4.5614 19.771 6.5334 36 6.511 19.468-0.027 26.164-1.6869 40.899-10.138 13.758-7.8908 19.582-14.043 26.571-28.07 8.7042-17.467 8.9519-19.764 8.9519-83.005 0-35.773 1.0517-63.989 2.3371-62.704 1.2855 1.2854 2.1626 8.8711 1.9492 16.857s0.3863 17.234 1.3327 20.552c1.3778 4.8303 4.9176 5.8551 17.765 5.1429 14.451-0.8011 16.64-2.0567 22.044-12.644 4.5593-8.9325 6-20.192 6-46.892 0-30.58-0.778-35.34-6-36.704-4.5151-1.1799-4.0908-1.6663 1.7143-1.9656l7.7143-0.3978v216.69l12 12c11.694 11.694 12 12.693 12 39.151v27.151l-9.4286-2.2359c-5.1857-1.2298-14.828-4.4267-21.428-7.1043-6.6-2.6777-16.131-8.825-21.18-13.661s-11.022-13.24-13.273-18.675c-2.2515-5.4356-4.8574-9.8829-5.7909-9.8829-0.9334 0-10.666 8.3037-21.628 18.452-12.232 11.324-26.293 20.62-36.399 24.064-9.0576 3.0862-24.209 6.268-33.67 7.0705-9.461 0.8026-23.974 0.046-32.251-1.6808zm-10.228-215.05c4.2647-5.4379 4.1435-5.5592-1.2944-1.2945-3.3 2.588-6 5.288-6 6 0 0.7119 0.5825 1.2945 1.2944 1.2945 0.712 0 3.412-2.7 6-6zm570.42 213.98c-7.5429-2.4984-18.343-6.9613-24-9.9176-5.6572-2.9563-16.931-12.087-25.053-20.291-8.1222-8.2034-19.632-24.787-25.578-36.852-9.2592-18.789-11.014-26.584-12.227-54.318-1.0382-23.736 0.1784-38.272 4.557-54.448 3.2853-12.137 11.7-30.894 18.699-41.682 6.9989-10.788 19.022-25.274 26.718-32.19s17.181-14.281 21.079-16.367c3.8977-2.086-0.864 4.6539-10.582 14.978-9.7177 10.324-19.18 17.836-21.028 16.694-1.8611-1.1503-2.2737-0.3199-0.9251 1.8621 1.3386 2.166-1.5087 9.1072-6.3274 15.425-4.8187 6.3177-8.7613 12.498-8.7613 13.734s1.5428 2.2478 3.4286 2.2478c1.8857 0 3.4285-2.2268 3.4285-4.9484 0-2.7217 3.4715-7.38 7.7143-10.352 4.2429-2.9718 7.2471-6.5307 6.6761-7.9087-0.5711-1.378 1.4855-3.0289 4.5702-3.6687 4.6873-0.9723 4.9788 0.013 1.7747 6-2.1085 3.9398-2.9537 7.1633-1.8781 7.1633 1.0755 0 5.9607-2.6243 10.856-5.8318 8.7239-5.7161 8.853-5.6821 6.5055 1.7143-1.5003 4.7271-0.9523 7.5461 1.4669 7.5461 2.1404 0 2.7449 1.9105 1.356 4.2857-1.3783 2.3571 0.8085 1.3795 4.8597-2.1725 4.0511-3.552 6.3922-8.0333 5.2024-9.9583-1.19-1.9255-0.489-2.4654 1.5582-1.2002 2.0468 1.265 4.6854 0.7403 5.8636-1.1661 1.1782-1.9063 5.0024-4.9968 8.4983-6.8677 5.1334-2.7473 6.176-2.2562 5.4196 2.5529-0.5325 3.3855-3.3573 5.5201-6.5471 4.9473-3.1609-0.5676-5.6106 1.251-5.6106 4.1651 0 2.8449-3.2178 6.8947-7.1507 8.9995-3.933 2.1049-6.2928 4.685-5.2442 5.7336 1.0486 1.0487-1.166 6.2217-4.9214 11.496s-9.1098 16.056-11.899 23.961c-2.7889 7.9046-5.0368 23.821-4.9954 35.369 0.049 13.67 2.5163 26.382 7.07 36.426 3.847 8.4857 10.37 19.05 14.496 23.476 4.1258 4.4264 12.902 10.799 19.502 14.161s18.229 7.1491 25.842 8.4158c7.6129 1.2668 21.499 0.602 30.857-1.4773 9.3585-2.0792 22.529-7.5806 29.268-12.225 6.7387-4.6446 15.909-14.951 20.378-22.904 7.6156-13.55 8.2202-18.74 9.6214-82.578 0.8223-37.466 2.6046-66.324 3.9607-64.13 1.3562 2.1942 1.8238 8.1326 1.0393 13.196l-1.4264 9.207 6.7795-7.7143c3.7288-4.2429 8.5648-7.7143 10.747-7.7143 2.4069 0 3.1113 2.6968 1.7908 6.8571-1.197 3.7715-0.7177 6.8572 1.0651 6.8572s5.663-3.4714 8.6226-7.7143c4.5176-6.4762 5.4101-6.7513 5.5611-1.7143 0.099 3.3 1.587 6 3.307 6s4.1874-6.2754 5.4833-13.945c1.2958-7.6699 2.8543-13.447 3.4633-12.838 0.6091 0.609 2.201 38.127 3.5377 83.374 1.7228 58.318 3.7856 84.94 7.0861 91.452 2.5607 5.052 7.7584 10.17 11.55 11.374 6.1908 1.9648 6.8948 5.1468 6.8948 31.165v28.977l-9.4286-2.063c-5.1857-1.1347-13.74-3.4219-19.009-5.0827s-14.176-6.2918-19.792-10.291c-5.6164-3.9993-13.27-13.265-17.007-20.591l-6.7952-13.32-15.596 15.596c-8.578 8.578-24.301 19.581-34.94 24.452-13.486 6.174-26.668 9.1986-43.531 9.988-14.037 0.6572-29.943-0.774-37.902-3.4102zm-42.857-211.81c0-1.8857-1.5428-2.475-3.4286-1.3096-1.8857 1.1654-3.4285 3.6618-3.4285 5.5475 0 1.8858 1.5428 2.4751 3.4285 1.3096 1.8858-1.1654 3.4286-3.6618 3.4286-5.5475zm6.8572-32.167c4.4288-4.7143 7.281-8.5715 6.3381-8.5715-0.9428 0-5.3379 3.8572-9.7667 8.5715-4.4289 4.7142-7.281 8.5714-6.3382 8.5714 0.9429 0 5.3379-3.8572 9.7668-8.5714zm365.14 243.78c-7.5428-2.3855-18.459-6.811-24.258-9.8344-5.7989-3.0234-16.387-11.965-23.529-19.871-7.1422-7.9056-15.93-21.028-19.527-29.162-3.5979-8.1336-8.0935-27.165-9.9903-42.292-1.8968-15.127-3.0221-51.275-2.5007-80.33 0.7277-40.547 1.9442-52.445 5.2338-51.189 2.3571 0.9001 4.2857 3.7857 4.2857 6.4125 0 2.6269 3.1871 4.7761 7.0825 4.7761s10.032-1.5786 13.637-3.5079c5.2886-2.8304 6.1675-2.4993 4.5506 1.7142-1.1022 2.8723-3.3817 5.2222-5.0657 5.2222s-3.0617 1.8515-3.0617 4.1143c0 3.2 0.9142 3.2 4.1142 0 2.2629-2.2628 6.8915-4.1143 10.286-4.1143 4.6571 0 6.1714-2.692 6.1714-10.971 0-6.7564 1.2126-9.7201 3.1563-7.7143 1.736 1.7915 3.6863 34.114 4.334 71.829 0.9699 56.475 2.2059 70.465 7.0063 79.306 3.2057 5.9039 10.631 14.776 16.502 19.715 5.8702 4.9394 14.45 9.9288 19.067 11.088 8.1707 2.0507 8.3685 2.8698 7.4501 30.854-0.754 22.971-1.9769 28.702-6.0864 28.52-2.8286-0.1248-11.314-2.1787-18.857-4.5642zm-653.14-153.49c0-85.172 0.7055-154.15 1.5679-153.29 0.8624 0.8623 1.7798 25.138 2.0388 53.946 0.3653 40.635 1.515 52.779 5.1279 54.166 3.6593 1.4042 3.8012 3.1573 0.6624 8.1834-2.1971 3.518-2.8702 7.5208-1.4958 8.8951 1.3743 1.3743 4.3245 0.6731 6.5559-1.5584 2.2314-2.2314 5.2914-4.0571 6.8-4.0571s2.7429 2.3143 2.7429 5.1428c0 2.9063 3.0701 5.1429 7.0594 5.1429 3.8828 0 6.106-1.5429 4.9406-3.4286-1.1655-1.8857-0.5982-3.4285 1.2605-3.4285s4.0851 2.7 4.9475 6c1.1504 4.4023 1.6738 3.8919 1.9657-1.9167 0.2187-4.3541 1.7792-7.0628 3.4677-6.0192 1.7666 1.0918 3.2923-30.431 3.5935-74.248 0.288-41.88 1.2208-76.843 2.0729-77.695s1.5493 37.114 1.5493 84.37c0 78.084 0.5376 86.125 5.8955 88.181 3.2425 1.2443 4.8912 1.258 3.6638 0.031-1.2275-1.2275 10.111-11.532 25.197-22.9 15.086-11.367 35.02-29.79 44.299-40.94 9.2787-11.149 23.116-29.469 30.75-40.71l13.879-20.438 35.015 0.1141c34.477 0.1123 34.899 0.2112 27.447 6.4315-4.1627 3.4746-6.477 7.5278-5.1429 9.0071s0.5645 1.6214-1.7103 0.3158-3.2669-4.6386-2.2046-7.4068c1.5984-4.1655-2.712-5.0201-25.007-4.9577l-26.938 0.075-10.286 15.535c-5.6571 8.5442-9.8617 17.111-9.3436 19.037 0.5182 1.9259-0.4773 2.6243-2.2122 1.5521-1.7348-1.0721-4.3398 0.7417-5.7888 4.0309s-2.8379 7.5232-3.0865 9.4089-2.4997 2.9798-5.0025 2.4312c-2.7023-0.5923-3.7941 0.9738-2.6881 3.856 1.0793 2.8125-3.7533 10.337-11.492 17.894-10.238 9.9974-12.477 14.098-9.5934 17.572 2.7872 3.3585 2.6167 4.5321-0.6586 4.5321-2.4309 0-3.3878 1.032-2.1266 2.2932 1.2613 1.2613-0.2636 5.1184-3.3885 8.5714-3.3967 3.7534-4.0892 6.2783-1.7218 6.2783 2.178 0 3.96-1.5429 3.96-3.4286s2.4053-3.4286 5.3452-3.4286c2.9398 0 4.3916 1.5429 3.2262 3.4286s-0.4851 3.4286 1.512 3.4286c1.997 0 3.6309 2.2268 3.6309 4.9484 0 2.7217-3.429 7.3502-7.6201 10.286-4.191 2.9355-6.0225 5.3373-4.07 5.3373s7.6922-4.3236 12.755-9.6079c7.1495-7.4626 8.288-10.525 5.0986-13.714-2.2585-2.2585-2.6407-4.13-0.8492-4.1589 1.7914-0.029 0.9428-1.5481-1.8858-3.376-3.9055-2.524-4.0345-3.3362-0.5361-3.3761 2.5337-0.029 5.4379 3.1262 6.4539 7.0112 1.788 6.8375 2.1532 6.7706 11.4-2.0888 5.2543-5.0339 11.115-8.1874 13.024-7.0078 1.9086 1.1796 4.4393 0.5767 5.6238-1.3398 1.1844-1.9164 0.4325-3.4845-1.671-3.4845s1.2583-6.0542 7.4706-13.454c7.3077-8.7043 12.156-12.06 13.734-9.5069 1.3417 2.1708 0 6.6457-2.9883 9.9443-2.9852 3.2986-6.7643 5.1714-8.3979 4.1617-1.6337-1.0097-3.1531 0.1839-3.3764 2.6523s-0.2707 5.503-0.1053 6.7435c0.1654 1.2406-10.528 12.47-23.762 24.955-13.235 12.485-25.66 21.713-27.612 20.507-2.1088-1.3033-3.0838 0.6213-2.403 4.7437 0.63 3.8153 27.374 35.806 59.431 71.091 32.057 35.285 59.432 66.12 60.832 68.524 2.0059 3.4414-5.4403 4.2613-35.062 3.8608l-37.609-0.5085-54.081-60.662c-29.744-33.364-55.238-60.75-56.652-60.857-1.4143-0.1072-2.5714 27.576-2.5714 61.519v61.714h-54.857zm74.128-15.271c0.4325-2.9468-0.1711-4.4003-1.3413-3.2301-1.1702 1.1703-2.4815 4.5387-2.914 7.4855s0.1711 4.4003 1.3413 3.2301 2.4815-4.5387 2.914-7.4855zm78.444-4.7294c7.3654-7.5429 12.62-13.714 11.677-13.714-0.9428 0-7.7405 6.1714-15.106 13.714-7.3654 7.5428-12.62 13.714-11.677 13.714 0.9428 0 7.7405-6.1715 15.106-13.714zm-37.675-22.497c0.022-2.5753 6.1879-11.296 13.703-19.378 12.024-12.934 11.527-12.677-4.1425 2.1378-9.793 9.2587-17.502 18.323-17.131 20.143 0.3709 1.8199-1.469 4.0876-4.0886 5.0394-3.2895 1.1951-3.9027 0.2671-1.9821-3 1.5295-2.6018-0.5336-1.8243-4.5847 1.7277-4.0512 3.552-6.4758 7.898-5.3882 9.6579 1.0876 1.7598-0.7021 2.7107-3.9771 2.1132-3.5127-0.641-6.3312 1.3048-6.873 4.7446-0.697 4.4252 3.3424 2.8976 16.753-6.3358 9.7195-6.6918 17.69-14.274 17.711-16.849zm70.684-14.36c4.2647-5.4379 4.1435-5.5591-1.2944-1.2944-3.3 2.588-6 5.288-6 6 0 0.7119 0.5825 1.2944 1.2944 1.2944 0.712 0 3.412-2.7 6-6zm-861.01 203.24c0-2.811 31.336-48.726 69.635-102.03 38.299-53.307 75.473-105.02 82.609-114.92 7.136-9.9014 14.397-17.123 16.136-16.049 1.7386 1.0745 2.1157 3.7756 0.838 6.0024-1.2777 2.2269 1.4966 0.5774 6.1651-3.6654 4.6684-4.2429 9.4974-7.7143 10.731-7.7143 1.2336 0 1.3548 2.3143 0.2694 5.1428-1.388 3.6171 0.2785 5.1429 5.6173 5.1429 5.6294 0 7.0328 1.4541 5.4312 5.6278-1.8851 4.9125-1.4247 5.0215 3.623 0.8571 5.3336-4.4001 5.4162-4.1049 1.0644 3.8008-2.5951 4.7143-4.3905 9.7286-3.9899 11.143 0.4006 1.4142-0.8144 2.5714-2.7002 2.5714-1.8857 0-3.4285 1.8118-3.4285 4.0262s3.8571 0.4026 8.5714-4.0262c4.7143-4.4289 8.5714-10.01 8.5714-12.403 0-2.3929 2.7-6.3903 6-8.883 3.3-2.4928 7.626-7.4597 9.6132-11.038 1.9872-3.5778 6.2277-6.8889 9.4232-7.3579 4.4823-0.6579 3.328 2.6034-5.0515 14.272-5.9739 8.3184-11.462 15.124-12.197 15.124s-0.2345-1.7813 1.111-3.9583c1.5278-2.4722 0.9392-3.0269-1.5679-1.4774-2.2078 1.3645-3.1808 3.8294-2.1622 5.4776 1.0187 1.6482-14.853 26.613-35.271 55.477-20.418 28.864-45.14 64.368-54.939 78.897-9.7986 14.529-17.816 27.258-17.816 28.286s51.686 1.8691 114.86 1.8691c107.21 0 114.84 0.3997 114.58 6-0.1509 3.3-2.8588 15.257-6.0176 26.571l-5.7432 20.572-161.98 0.8907c-141.65 0.7789-161.98 0.2491-161.98-4.2204zm-15.092-67.842c-6.7122-12.002-19.744-37.928-28.959-57.612-9.2152-19.684-22.327-52.76-29.137-73.503-6.8099-20.743-15.425-50.828-19.145-66.857s-9.0335-46.114-11.808-66.857c-2.7741-20.743-6.0712-55.457-7.3271-77.143-1.3013-22.472-0.56776-60.072 1.7058-87.429 2.194-26.4 5.3455-54.171 7.0034-61.714l3.0143-13.714-1.4901 13.714c-0.81953 7.5429-2.5207 37.476-3.7803 66.517-1.7813 41.07-1.3632 52.23 1.8817 50.225 2.2946-1.4181 3.3438-4.7366 2.3315-7.3745-1.0122-2.6378-0.34599-4.796 1.4806-4.796 1.8265 0 3.321 3.1341 3.321 6.9647s-2.3143 7.8528-5.1428 8.9383c-2.8286 1.0854-5.1429 3.0414-5.1429 4.3468 0 1.3053 5.4 1.7428 12 0.9723 6.8278-0.7971 12 0.1154 12 2.117 0 1.9349-1.9286 4.2962-4.2857 5.2473-2.9461 1.1888-2.6782 1.8378 0.85715 2.0763 2.8286 0.1908 9 3.364 13.714 7.0516 4.7143 3.6875 6.6429 6.7389 4.2857 6.7809-2.3572 0.042-4.2857 1.9276-4.2857 4.1905 0 3.2 0.91429 3.2 4.1143 0 2.2629-2.2629 5.1686-4.1143 6.4573-4.1143s3.4579 3.4714 4.8206 7.7143c2.0982 6.5332 2.7229 6.7956 4.0798 1.7143 0.88125-3.3 2.9934-6 4.6937-6 1.7003 0 2.1657 4.6285 1.0343 10.286-1.3105 6.5524-0.65714 10.286 1.8 10.286 2.1214 0 3.8572-2.3143 3.8572-5.1429 0-2.8285 1.5428-5.1428 3.4286-5.1428 1.8857 0 3.4286 3.0857 3.4286 6.8571 0 3.9249-2.2857 6.8572-5.3452 6.8572-2.9399 0-4.4576 1.4362-3.3726 3.1916 1.0849 1.7554 0.40453 4.1608-1.5119 5.3452-1.9165 1.1845-3.4845 3.6054-3.4845 5.3798s1.5429 3.2262 3.4286 3.2262c1.8857 0 3.4286-2.0241 3.4286-4.4981 0-2.4739 4.6286-7.9201 10.286-12.103 8.6539-6.3981 10.286-6.7214 10.286-2.0381 0 3.0616-2.9288 6.3324-6.5085 7.2685-3.5796 0.9361-6.1957 3.8327-5.8135 6.4369s1.7682 5.8082 3.0799 7.1199 2.385-0.1865 2.385-3.3293c0-3.1429 2.4069-5.7143 5.3487-5.7143 4.0175 0 4.9453 2.5599 3.7277 10.286-0.89157 5.6571-0.26962 10.286 1.3821 10.286 1.6517 0 2.6322-20.443 2.1789-45.429-0.45336-24.986-4e-3 -53.914 0.99852-64.286 1.3096-13.547 2.5175-3.8932 4.2898 34.286 1.3569 29.229 4.8729 67.8 7.8133 85.714 2.9404 17.914 9.3744 48 14.298 66.857 4.9233 18.857 13.991 47.556 20.15 63.775 6.1594 16.219 15.965 38.932 21.791 50.472l10.592 20.982-20.343 27.051c-11.188 14.878-26.495 35.834-34.015 46.568l-13.672 19.517zm3.7202-277.47c-1.0945-2.7351-1.9069-1.9227-2.0714 2.0714-0.14887 3.6143 0.66147 5.6393 1.8008 4.5 1.1393-1.1393 1.2611-4.0964 0.27067-6.5714zm881.32 128.88c-1.1272-1.1272-1.2193-4.2129-0.2046-6.8572 1.0147-2.6442 3.0861-4.8076 4.6032-4.8076 1.5172 0 2.4253 2.2696 2.0182 5.0436-0.4072 2.774-1.5564 5.8597-2.5538 6.8571-0.9974 0.9975-2.7358 0.8913-3.863-0.2359zm148.34-4.9153c0-1.8265 2.3143-3.3209 5.1429-3.3209 2.8285 0 5.1428 0.6063 5.1428 1.3474s-2.3143 2.2356-5.1428 3.321c-2.8286 1.0854-5.1429 0.4791-5.1429-1.3475zm16.448-7.102c3.2712-3.5231 15.062-4.9021 44.571-5.2127l40.124-0.4222-37.714 2.3774c-20.743 1.3076-40.8 3.6533-44.572 5.2126-5.7627 2.3827-6.1472 2.0706-2.4091-1.9551zm-562.23-1.9896c2.475-0.9904 5.4321-0.8686 6.5714 0.2707 1.1393 1.1392-0.8857 1.9496-4.5 1.8007-3.9941-0.1645-4.8065-0.9769-2.0714-2.0714zm-302.49-4.0395c-1.3031-2.1085 8.6574-19.278 22.134-38.155 13.477-18.876 25.177-34.321 25.999-34.321 0.8225 0-6.1903 11.39-15.584 25.311-9.3937 13.921-15.998 26.511-14.676 27.978 1.322 1.4672 0.475 1.5577-1.8821 0.2012-2.3572-1.3564-4.4786-0.8324-4.7143 1.1646s-0.6617 4.7881-0.9467 6.2024c-0.2849 1.4143-2.1929 5.4695-4.2398 9.0117-2.4564 4.2507-4.5273 5.1369-6.091 2.6067zm319.46 0.5281c4.2649-0.8201 10.436-0.7889 13.714 0.069 3.278 0.8582-0.2114 1.5291-7.7543 1.4911-7.5428-0.038-10.225-0.7402-5.96-1.5603zm42.817 0.062c3.3-0.8624 8.7-0.8624 12 0s0.6 1.568-6 1.568-9.3-0.7056-6-1.568zm346.93-0.2788c1.1703-1.1702 4.5387-2.4816 7.4855-2.914 2.9468-0.4325 4.4003 0.1711 3.2301 1.3413s-4.5387 2.4815-7.4855 2.914-4.4003-0.1711-3.2301-1.3413zm331.07-23.072v-25.714l39.429 1.0773-34.286 4.0656v41.143l41.143 3.9901-46.286 1.1527zm96.874 23.698c1.2352-1.2352 19.363-1.9734 40.283-1.6404l38.037 0.6054-1.0256-21.617-1.0256-21.617-72-3.8006 77.443-1.3423-1.0073 24.857-1.0074 24.857-40.972 0.9719c-22.534 0.5346-39.961-0.039-38.726-1.274zm-417.09-11.126c-0.9712-1.5715 0.4128-2.8572 3.0754-2.8572 2.6627 0 4.0466 1.2857 3.0754 2.8572-0.9711 1.5714-2.3551 2.8571-3.0754 2.8571-0.7202 0-2.1042-1.2857-3.0754-2.8571zm6.8572-10.286c-0.9712-1.5714 0.4127-2.8571 3.0754-2.8571s4.0466 1.2857 3.0754 2.8571c-0.9712 1.5715-2.3551 2.8572-3.0754 2.8572s-2.1042-1.2857-3.0754-2.8572zm-650.07-5.2944c0-0.712 2.7-3.412 6-6 5.4379-4.2647 5.5592-4.1435 1.2945 1.2944-2.588 3.3-5.288 6-6 6s-1.2945-0.5825-1.2945-1.2944zm749.94-5.9881c2.3257-2.3432 5.0922-3.3966 6.1479-2.341 1.0556 1.0556-0.8473 2.9727-4.2286 4.2603-4.8864 1.8606-5.2802 1.4668-1.9193-1.9193zm-561.37-3.0032c2.8286-1.8279 6.6858-3.3235 8.5715-3.3235s1.1143 1.4956-1.7143 3.3235c-2.8286 1.828-6.6857 3.3236-8.5714 3.3236-1.8858 0-1.1143-1.4956 1.7142-3.3236zm588-6.8571c3.7714-1.6207 9.9428-2.9013 13.714-2.8458 5.5124 0.081 5.1763 0.6391-1.7142 2.8458-4.7143 1.5098-10.886 2.7904-13.714 2.8458-3.1508 0.062-2.4868-1.0406 1.7143-2.8458zm-561.21-2.3421c2.475-0.9904 5.4321-0.8686 6.5714 0.2707 1.1393 1.1392-0.8857 1.9496-4.5 1.8007-3.9941-0.1645-4.8065-0.9769-2.0714-2.0714zm646.93-1.0865-65.143-1.9438 67.917-0.7424c44.589-0.4874 67.189 0.4353 65.798 2.6862-1.1655 1.8857-2.4137 3.0945-2.7738 2.6862s-29.969-1.6171-65.798-2.6862zm-624.81-2.4603c5.2117-0.788 12.926-0.767 17.143 0.047 4.2169 0.8138-0.047 1.4586-9.4757 1.4329-9.4286-0.026-12.879-0.6916-7.6672-1.4797zm-432-82.286c5.2117-0.7881 12.926-0.767 17.143 0.047 4.2169 0.8138-0.047 1.4586-9.4757 1.4329-9.4286-0.026-12.879-0.6916-7.6672-1.4797zm1235.1-5.8108c5.6571-4.8607 11.443-8.8454 12.857-8.8547 1.4143-0.01 2.5714 1.7829 2.5714 3.9829s-0.983 3.0171-2.1844 1.8156c-1.2014-1.2014-6.9871 0.9832-12.857 4.8548l-10.673 7.0392zm-1316.6-29.444c1.1654-1.8857 2.7993-3.4286 3.6309-3.4286s1.5119 1.5429 1.5119 3.4286-1.6339 3.4286-3.6309 3.4286c-1.997 0-2.6774-1.5429-1.5119-3.4286zm-25.714-13.512c0-1.7745 1.5429-4.1798 3.4286-5.3452 1.8857-1.1655 3.4286 0.2863 3.4286 3.2262s-1.5428 5.3452-3.4286 5.3452c-1.8857 0-3.4286-1.4518-3.4286-3.2262zm-11.526-8.7738c1.0854-2.8286 3.3029-5.1429 4.9276-5.1429s2.0661 2.3143 0.98065 5.1429c-1.0854 2.8286-3.3029 5.1429-4.9276 5.1429s-2.0661-2.3143-0.98065-5.1429zm-11.689-5.7857c0.74643-2.2393 3.1903-4.6825 5.4309-5.4294 2.5054-0.8351 3.2717 0.7323 1.9903 4.0715-1.1459 2.9861-3.5898 5.4293-5.4309 5.4293s-2.7368-1.8321-1.9903-4.0714zm-9.3571-13.071c1.1654-1.8858 3.6618-3.4286 5.5476-3.4286 1.8857 0 2.475 1.5428 1.3096 3.4286-1.1654 1.8857-3.6618 3.4285-5.5475 3.4285-1.8857 0-2.475-1.5428-1.3096-3.4285zm814.95-29.143c0.07-5.6571 0.8383-7.5564 1.7076-4.2205s0.8121 7.9645-0.1271 10.286c-0.9391 2.3213-1.6504-0.4081-1.5805-6.0652zm-736.95-37.714c0.038-7.5428 0.74017-10.225 1.5603-5.96 0.82009 4.2648 0.78896 10.436-0.0692 13.714-0.85814 3.278-1.5291-0.2114-1.4911-7.7543zm-89.339-75.429c0.0699-5.6571 0.83828-7.5563 1.7076-4.2204s0.81212 7.9644-0.12704 10.286c-0.93917 2.3212-1.6504-0.4081-1.5805-6.0653zm6.4594-34.571c0.16452-3.9941 0.97694-4.8065 2.0714-2.0714 0.99041 2.475 0.86861 5.4321-0.27068 6.5714-1.1393 1.1393-1.9496-0.8857-1.8008-4.5zm3.4286-13.714c0.16452-3.9941 0.97694-4.8065 2.0714-2.0714 0.99041 2.475 0.86861 5.4321-0.27068 6.5714-1.1393 1.1393-1.9496-0.8857-1.8008-4.5z" fill="#0c3729"/>
 </g>
 <path d="m2022.4 1749c-12.227-2.9896-44.284-12.899-71.238-22.022-26.954-9.1222-56.231-17.833-65.059-19.358-15.655-2.7035-16.454-3.7981-32.3-44.236-8.9364-22.805-16.248-42.496-16.248-43.757 0-5.3387 59.529-24.276 76.311-24.276 11.683 0 32.204 5.9198 56.757 16.373 21.152 9.0052 53.862 21.542 72.69 27.86 35.222 11.818 42.399 18.278 34.948 31.456-6.8466 12.11-18.576 12.452-60.786 1.7754-62.15-15.72-65.547-16.25-63.304-9.881 2.0809 5.9091 49.251 22.529 84.962 29.936 20.928 4.3404 21.776 4.0825 83.76-25.481 34.44-16.426 67.128-29.866 72.64-29.866 19.718 0 27.471 18.328 12.918 30.537-9.3765 7.8663-98.611 59.662-123.51 71.687-27.888 13.472-38.731 15.076-62.545 9.2529zm-218.12-12.704c-3.6639-8.3005-11.544-27.752-17.51-43.226-5.9668-15.474-13.962-35.054-17.768-43.511l-6.9194-15.376 24.121-9.267c13.267-5.097 26.091-8.1149 28.498-6.7067 4.6401 2.7145 51.289 111.88 48.81 114.23-1.8067 1.7081-47.816 18.95-50.567 18.95-1.1015 0-5.0006-6.7911-8.6643-15.092zm287.22-84.012c0-3.4792 1.8408-6.3258 4.0907-6.3258 2.25 0 7.2621-1.1518 11.138-2.5598 4.4959-1.633 7.0472-0.2696 7.0472 3.7661 0 5.9066-8.8003 11.445-18.185 11.445-2.2499 0-4.0907-2.8467-4.0907-6.3259zm-44.319-23.855c-45.449-14.456-56.338-22.238-18.487-13.213 26.726 6.3726 53.11 4.6674 77.274-4.9941 6.3942-2.5565 7.6099-1.101 6.8018 8.1424-1.9842 22.693-18.107 25.167-65.589 10.065zm-26.965-26.036c-15.9-3.9116-20.36-7.0184-21.554-15.014-1.2466-8.3466-0.096-9.5367 6.6829-6.9127 17.244 6.6748 66.043 7.0928 87.618 0.7503 19.159-5.6318 21.23-5.6281 18.935 0.034-1.4175 3.4967-2.5774 8.9598-2.5774 12.14 0 12.962-51.754 18.191-89.104 9.0026zm-3.551-32.628c-15.385-4.4792-22.812-14.403-15.769-21.069 8.7852-8.3158 54.63-13.047 79.352-8.1887 30.578 6.009 38.301 13.736 23.13 23.145-13.434 8.3317-66.294 12.058-86.714 6.1133zm67.838-16.105c6.3323-9.6986-47.167-11.852-64.288-2.5881-10.346 5.5983-8.5426 6.0375 25.355 6.1764 20.071 0.082 37.591-1.5326 38.933-3.5883z" fill="#d1a054" stroke-width="1.2642"/>
</svg>
